<?xml version="1.0" encoding="UTF-8"?>
<svg version="1.1" xmlns="http://www.w3.org/2000/svg" width="1370" height="1148">
<path d="M0 0 C452.1 0 904.2 0 1370 0 C1370 378.84 1370 757.68 1370 1148 C917.9 1148 465.8 1148 0 1148 C0 769.16 0 390.32 0 0 Z " fill="#FBEADA" transform="translate(0,0)"/>
<path d="M0 0 C12.24149957 0.61916507 24.41563516 1.76936644 36.60961914 2.98364258 C37.9218042 3.11407959 39.23398926 3.2445166 40.5859375 3.37890625 C41.7723584 3.4982251 42.9587793 3.61754395 44.18115234 3.74047852 C46.8601347 4.0305596 46.8601347 4.0305596 49 4 C47.30245095 21.92009439 45.40637711 39.71953179 40.9453125 57.1953125 C40.12293158 60.5052258 39.47154644 63.75916109 38.9375 67.125 C38.70353516 68.58292969 38.70353516 68.58292969 38.46484375 70.0703125 C38.23474609 71.52050781 38.23474609 71.52050781 38 73 C37.82758789 73.89275635 37.65517578 74.7855127 37.47753906 75.70532227 C36.94605341 79.37219287 36.88179783 82.95025407 36.89453125 86.64453125 C36.70327635 117.94193567 36.70327635 117.94193567 30 131 C30.33773437 130.29875 30.67546875 129.5975 31.0234375 128.875 C31.46945312 127.92625 31.91546875 126.9775 32.375 126 C32.81585937 125.071875 33.25671875 124.14375 33.7109375 123.1875 C37.00834432 115.03391222 37.25910217 107.70786969 37.375 99 C37.77058799 82.73171112 39.99060441 66.99705408 44.21484375 51.27734375 C47.3786549 38.07118676 49.27312419 24.55225382 50.40454102 11.03125 C50.90872855 5.09127145 50.90872855 5.09127145 52 4 C54.08558433 4.03829463 56.16992359 4.15626108 58.25 4.3125 C59.38953125 4.39113281 60.5290625 4.46976562 61.703125 4.55078125 C64.81368187 4.97461305 67.13163906 5.78836478 70 7 C70.99 7 71.98 7 73 7 C73 6.34 73 5.68 73 5 C75.29199177 5.14063135 77.58359186 5.28765943 79.875 5.4375 C81.15117188 5.51871094 82.42734375 5.59992188 83.7421875 5.68359375 C87 6 87 6 89 7 C89.81003311 8.61713132 90.54855321 10.2703948 91.25 11.9375 C95.11993248 20.64763622 100.15432386 28.3681308 105.5625 36.1875 C106.22197632 37.15647217 106.22197632 37.15647217 106.89477539 38.14501953 C116.65898165 52.03926872 128.76846385 64.04819271 140.8125 75.9375 C142.19904365 77.31397387 143.58511355 78.69092512 144.97070312 80.06835938 C148.30839795 83.38440318 151.65232627 86.69403184 155 90 C153.28404071 93.77825898 151.30961439 95.47838904 148 98 C146.64852862 99.31494512 145.30887458 100.64264858 144 102 C142.81585706 98.44757118 143.30464468 97.30169438 144.4375 93.8125 C144.72496094 92.91144531 145.01242187 92.01039063 145.30859375 91.08203125 C145.53675781 90.39496094 145.76492188 89.70789063 146 89 C145.57589844 90.15757812 145.15179687 91.31515625 144.71484375 92.5078125 C139.0299719 107.48731062 139.0299719 107.48731062 132 112 C126.55590463 116.40947091 121.58404892 121.31177947 116.625 126.25 C116.0055249 126.86488281 115.3860498 127.47976563 114.74780273 128.11328125 C113.87103882 128.99306641 113.87103882 128.99306641 112.9765625 129.890625 C112.45143066 130.41688477 111.92629883 130.94314453 111.38525391 131.48535156 C109.78420638 133.15879531 109.78420638 133.15879531 108 136 C105.62102454 136.78607044 103.29647622 137.44330453 100.875 138.0625 C90.82573936 140.91680868 82.85317357 146.30786182 74.30908203 152.15771484 C66.44360466 157.52561232 58.37075478 162.00197956 49.8125 166.1875 C48.79534912 166.694021 47.77819824 167.20054199 46.73022461 167.72241211 C45.7738208 168.1788208 44.81741699 168.63522949 43.83203125 169.10546875 C42.54389526 169.72651489 42.54389526 169.72651489 41.22973633 170.36010742 C40.49392334 170.57127197 39.75811035 170.78243652 39 171 C35.73756077 168.82504052 35.28639336 167.89438505 33.75 164.4375 C31.93407309 160.56612208 29.9340108 157.59249245 27.125 154.375 C24.06330494 150.66525717 24.06330494 150.66525717 23.77734375 147.66015625 C24.0625 145.4375 24.0625 145.4375 25 142 C24.34 143.65 23.68 145.3 23 147 C19.66366913 145.88788971 18.9789315 145.0611643 16.8046875 142.4140625 C13.7637836 138.82723254 10.55094736 135.56474675 7.15209961 132.32006836 C-6.94575488 118.79271599 -20.78803113 99.89983302 -21.265625 79.578125 C-21.15439261 74.35020272 -20.23505077 69.74462585 -18.75 64.75 C-18.49694092 63.85740479 -18.24388184 62.96480957 -17.9831543 62.04516602 C-16.08623155 55.45616643 -14.05624621 48.90719025 -12.03515625 42.35546875 C-11.77215729 41.50270355 -11.50915833 40.64993835 -11.2381897 39.77133179 C-9.91158161 35.47610077 -8.57689279 31.18364963 -7.22753906 26.89550781 C-4.43847412 17.98922865 -1.89783108 9.14670506 0 0 Z " fill="#FDF1E4" transform="translate(507,487)"/>
<path d="M0 0 C25.28339114 14.64478113 40.01003392 36.70467312 49 64 C43.49650946 62.7770021 38.53851632 61.04969248 33.33984375 58.87890625 C30.59951666 57.84956803 27.88478484 57.44381305 25 57 C24.67 56.34 24.34 55.68 24 55 C23.05125 55.165 22.1025 55.33 21.125 55.5 C18 56 18 56 16 56 C16 56.99 16 57.98 16 59 C17.16015625 58.94779297 17.16015625 58.94779297 18.34375 58.89453125 C23.88300029 58.75056559 28.54962356 58.6852173 33.6875 61.05078125 C36.14187909 62.12357473 36.14187909 62.12357473 39.4375 62.85546875 C49.04726562 65.29114065 53.49605405 68.99599269 59.421875 76.8203125 C63.24780425 81.79167692 68.42499824 85.21249912 74 88 C74 88.66 74 89.32 74 90 C71.03 91.65 68.06 93.3 65 95 C69.02544018 94.26394184 69.02544018 94.26394184 71.875 91.875 C75.72387855 89.56567287 76.73135956 90.01971684 81 91 C83.19480279 91.62056236 85.38213356 92.26797844 87.5625 92.9375 C94.31946991 94.9163783 101.0222266 96.11908509 108 97 C106.62306182 105.99182358 95.81714291 114.32662991 89.5625 120.43359375 C87.36867503 122.63076296 85.3591614 124.86625054 83.375 127.25 C79.69837752 131.51075876 75.55747169 134.72038294 71 138 C70.09797852 138.6499292 70.09797852 138.6499292 69.17773438 139.31298828 C64.8458546 142.42481331 60.48331644 145.48990717 56.10205078 148.53173828 C54.26281615 149.81642552 52.4402497 151.12076134 50.62109375 152.43359375 C41.57548751 158.83387588 31.851725 163.90579329 22.06228638 169.05136108 C8.44846286 176.20866624 -4.56544421 183.91475198 -17 193 C-18.44632813 194.04607422 -18.44632813 194.04607422 -19.921875 195.11328125 C-26.64057028 200.04998756 -32.91323111 205.30375389 -39 211 C-42.76838382 209.53845899 -44.03584424 207.76953073 -45.953125 204.265625 C-46.48583008 203.30575684 -47.01853516 202.34588867 -47.56738281 201.35693359 C-48.12264648 200.33164551 -48.67791016 199.30635742 -49.25 198.25 C-50.41664392 196.14321657 -51.58331051 194.03644569 -52.75 191.9296875 C-53.83377 189.95336439 -54.91714478 187.97682448 -56 186 C-64.62713257 170.35821941 -74.32043796 155.67956204 -87 143 C-86.9375 141.125 -86.9375 141.125 -86 139 C-85.26007813 138.4225 -84.52015625 137.845 -83.7578125 137.25 C-80.69769715 134.75336198 -78.33721287 131.98056296 -75.9375 128.875 C-75.47142334 128.27751953 -75.00534668 127.68003906 -74.52514648 127.06445312 C-69.0675507 119.95317772 -64.16786004 112.4643818 -59.27783203 104.95703125 C-57.537586 102.29180156 -55.77046281 99.64523049 -54 97 C-47.93889483 97.62332914 -41.97260964 98.44754476 -35.9765625 99.5234375 C-35.14973969 99.67027985 -34.32291687 99.81712219 -33.47103882 99.96841431 C-31.73465171 100.27787288 -29.9985393 100.58887645 -28.26269531 100.90136719 C-25.63967241 101.37236538 -23.01524372 101.83486346 -20.390625 102.296875 C-12.55925466 103.69203983 -4.89018994 105.18609415 2.75488281 107.41503906 C6.09093698 108.28424152 9.24397733 108.51702858 12.6875 108.6875 C13.88761719 108.75324219 15.08773437 108.81898438 16.32421875 108.88671875 C17.20722656 108.92410156 18.09023438 108.96148437 19 109 C19.66 110.98 20.32 112.96 21 115 C21 113.02 21 111.04 21 109 C26.93368026 107.02210658 33.78057996 107.87439993 40 108 C41.70349609 108.02513672 41.70349609 108.02513672 43.44140625 108.05078125 C50.2074685 108.35322337 54.67648503 109.75684542 60 114 C53.30708208 106.93525331 48.47831845 106.41344901 39 106 C36.14565918 105.92469113 33.29276923 105.88860886 30.4375 105.875 C29.40157715 105.86799072 29.40157715 105.86799072 28.34472656 105.86083984 C25.2856468 105.87067855 22.9254013 106.02486623 20 107 C11.27092744 107.56316597 3.43716796 105.46911558 -4.94921875 103.203125 C-13.05387534 101.12663782 -21.0731522 100.31830736 -29.39819336 99.73413086 C-34.00055672 99.38906564 -37.77278692 98.98247037 -42 97 C-44.36136743 96.45155337 -46.72611468 96.00442907 -49.109375 95.5625 C-49.73328125 95.376875 -50.3571875 95.19125 -51 95 C-51.33 94.34 -51.66 93.68 -52 93 C-50.76953125 90.48046875 -50.76953125 90.48046875 -48.8125 87.1875 C-48.07101611 85.92613287 -47.33017254 84.66438919 -46.58984375 83.40234375 C-46.17847168 82.70608887 -45.76709961 82.00983398 -45.34326172 81.29248047 C-42.81049269 76.96992482 -40.35027992 72.60564112 -37.875 68.25 C-34.0062757 61.44427606 -30.05380932 54.69728674 -26 48 C-24.45505859 48.38091797 -24.45505859 48.38091797 -22.87890625 48.76953125 C-14.47086475 50.81055968 -6.08766244 52.62812841 2.46459961 53.96020508 C5.96482542 54.52900761 8.94177736 55.16034936 12 57 C12.33 55.68 12.66 54.36 13 53 C6.63466739 50.50735714 0.05623749 50.00757599 -6.68164062 49.23242188 C-12.76483642 48.47463905 -18.26932533 47.18730074 -24 45 C-23.52691406 44.14921875 -23.05382812 43.2984375 -22.56640625 42.421875 C-18.0437595 34.17088148 -13.9976688 25.80843903 -10.32250977 17.14355469 C-7.72142933 11.1508397 -4.67971478 4.67971478 0 0 Z " fill="#FDF1E4" transform="translate(363,294)"/>
<path d="M0 0 C0.67667998 1.24460783 1.34094719 2.49596896 2 3.75 C2.37125 4.44609375 2.7425 5.1421875 3.125 5.859375 C4 8 4 8 4 12 C4.66 12 5.32 12 6 12 C6.41958984 13.21623047 6.41958984 13.21623047 6.84765625 14.45703125 C10.95682381 25.80678988 16.67210598 34.76094362 24.49609375 43.90625 C26 46 26 46 26 49 C21.75100889 50.24886795 17.50089533 51.4938218 13.24975586 52.73535156 C11.80739336 53.15716089 10.36532853 53.57998958 8.92358398 54.00390625 C6.83657088 54.61735066 4.74869394 55.22770484 2.66015625 55.8359375 C1.98723541 56.03217712 1.31431458 56.22841675 0.6210022 56.43060303 C-3.04533288 57.48527811 -6.70279508 58.4070067 -10.44140625 59.1640625 C-11.61574219 59.43992187 -12.79007813 59.71578125 -14 60 C-14.495 60.99 -14.495 60.99 -15 62 C-14.42386963 61.82476807 -13.84773926 61.64953613 -13.25415039 61.46899414 C-6.33736084 59.37815802 0.60546849 57.38983534 7.5625 55.4375 C8.63435547 55.13392578 9.70621094 54.83035156 10.81054688 54.51757812 C16.84404033 52.82377171 22.86792738 51.29333326 29 50 C29.50789062 51.14855469 30.01578125 52.29710937 30.5390625 53.48046875 C31.2341301 55.04958767 31.92946174 56.61858965 32.625 58.1875 C32.99036865 59.0117749 33.3557373 59.8360498 33.73217773 60.68530273 C35.79767379 65.33300792 37.90103536 69.95840459 40.0625 74.5625 C42.60768483 80.03601577 44.90738807 85.58578978 47.16845703 91.18041992 C49.9638495 98.04106772 53.02635526 104.77421739 56.15551758 111.48852539 C56.71082153 112.69690063 56.71082153 112.69690063 57.27734375 113.9296875 C57.60984131 114.64366699 57.94233887 115.35764648 58.28491211 116.09326172 C59 118 59 118 59 121 C52.60353726 120.48282606 46.27003576 119.79486141 39.92358398 118.84448242 C9.47546961 114.31543748 -18.21575698 119.79163934 -47.01318359 129.47070312 C-60.79824464 134.08798324 -73.69868764 135.60012314 -88.125 136.625 C-89.95837546 136.75984515 -91.79170933 136.89525697 -93.625 137.03125 C-98.08288036 137.3607068 -102.5412547 137.68247268 -107 138 C-107.46055786 136.46629761 -107.46055786 136.46629761 -107.93041992 134.90161133 C-109.09029043 131.04397089 -110.25675768 127.1883497 -111.42504883 123.33325195 C-111.92614973 121.67655429 -112.42555035 120.01934121 -112.9230957 118.36157227 C-116.58171763 102.09326904 -116.58171763 102.09326904 -124 88 C-124.25526048 86.67141533 -124.47754417 85.33649306 -124.6875 84 C-126.0681412 76.70684192 -128.76745002 69.8616299 -131.30908203 62.91162109 C-136 49.93286219 -136 49.93286219 -136 43 C-124.44900234 37.36366982 -112.77620334 32.12408651 -100.91625977 27.16992188 C-95.55110937 24.92807365 -90.20261374 22.6633453 -84.89453125 20.2890625 C-58.31432309 8.40261747 -29.394274 -0.79324877 0 0 Z " fill="#FDF1E4" transform="translate(755,721)"/>
<path d="M0 0 C17.14844023 -0.26637558 34.14195255 0.16793426 51.25958252 1.14294434 C65.18983018 1.93094133 79.04386013 2.26428233 93 2 C91.57521802 7.34003652 89.92598625 12.32224419 87.4921875 17.29296875 C84.60391853 23.45727354 83.35675267 29.64767479 82.125 36.3125 C81.62592525 38.86918107 81.12319731 41.4251512 80.6171875 43.98046875 C80.48868408 44.63394287 80.36018066 45.28741699 80.2277832 45.96069336 C78.50443377 54.63895086 76.42267068 63.23458372 74.35986328 71.8371582 C73.55422351 75.22070544 72.77144662 78.60851145 72 82 C71.69956787 83.25115601 71.69956787 83.25115601 71.39306641 84.52758789 C69.24066275 94.56714199 69.28458982 104.96363644 68.875 115.1875 C68.78845397 117.20901419 68.7012203 119.23049906 68.61328125 121.25195312 C68.4009182 126.16766632 68.19788706 131.08368365 68 136 C66.93056152 136.33410889 65.86112305 136.66821777 64.75927734 137.01245117 C63.32649679 137.46012175 61.89371688 137.90779439 60.4609375 138.35546875 C59.75960693 138.57456909 59.05827637 138.79366943 58.33569336 139.01940918 C52.714694 140.77576876 47.09526716 142.53709356 41.4765625 144.30078125 C39 145 39 145 37 145 C37.33 146.98 37.66 148.96 38 151 C37.01 151 36.02 151 35 151 C34.56171875 150.05640625 34.1234375 149.1128125 33.671875 148.140625 C23.31845791 126.80241677 6.04433752 116.47292787 -15.41357422 108.01904297 C-18.16801943 106.93380092 -20.91446313 105.82984352 -23.66015625 104.72265625 C-28.43434829 102.80040043 -33.21522781 100.895758 -38 99 C-35.96344829 95.49086475 -33.7490587 92.24215519 -31.3125 89 C-27.26544844 83.47393506 -23.6777583 77.75551892 -20.15527344 71.88525391 C-18.87818961 69.80122151 -17.55544063 67.75058933 -16.2265625 65.69921875 C-10.26375143 56.40059732 -5.74895155 47.74590152 -3 37 C-2.82178711 36.36602295 -2.64357422 35.7320459 -2.45996094 35.07885742 C-0.62032355 27.94321889 -0.55508042 20.7720256 -0.375 13.4375 C-0.33632813 12.14263672 -0.29765625 10.84777344 -0.2578125 9.51367188 C-0.16420106 6.34258424 -0.07846597 3.17149245 0 0 Z " fill="#FDF1E4" transform="translate(421,670)"/>
<path d="M0 0 C0.28149902 0.63719971 0.56299805 1.27439941 0.85302734 1.9309082 C2.41431456 4.74740653 4.00159543 4.98726453 7 6 C8.46457137 6.75891425 9.92272609 7.53031037 11.375 8.3125 C25.28556743 15.19670782 38.56963256 17.05806982 53.86376953 18.64404297 C59.48822594 19.28240958 65.07029864 20.20741954 70.65844727 21.10400391 C75.4089638 21.81114711 79.75325538 22.00049254 84.53759766 21.64453125 C90.73666221 21.20206125 94.45167918 21.65527986 99.12670898 25.68359375 C101.55190379 28.02039964 103.77211946 30.47188441 106 33 C106.93457031 33.92425781 107.86914062 34.84851563 108.83203125 35.80078125 C111 38 111 38 111 39 C112.65 39.66 114.3 40.32 116 41 C114.58006979 45.00162151 112.61926389 48.55453181 110.54296875 52.23828125 C108.7235183 55.49486724 106.94826193 58.77395553 105.1875 62.0625 C104.84928223 62.69164307 104.51106445 63.32078613 104.16259766 63.96899414 C102.31640145 67.43072023 100.54227646 70.91451778 98.84765625 74.453125 C98.49614502 75.18136475 98.14463379 75.90960449 97.7824707 76.65991211 C97.10752788 78.06709368 96.44282934 79.479247 95.78979492 80.89672852 C94.52900074 83.51922012 93.34578534 85.68327851 91.1875 87.66015625 C87.66687944 88.2071098 85.17209209 86.37183307 82.25 84.625 C81.64800781 84.28210938 81.04601562 83.93921875 80.42578125 83.5859375 C78.94227881 82.73822182 77.46998513 81.87094495 76 81 C75.67 81.33 75.34 81.66 75 82 C79.95 84.64 84.9 87.28 90 90 C88.35804187 94.92587438 86.87010764 98.13238756 84.1875 102.4375 C80.09217324 109.10118413 76.20792014 115.8698163 72.375 122.6875 C71.80869873 123.69127686 71.24239746 124.69505371 70.65893555 125.72924805 C68.45338218 129.63863743 66.25056362 133.54908692 64.0703125 137.47265625 C45.84600101 169.70520717 45.84600101 169.70520717 34 178 C32.78998077 175.57996155 32.69843348 173.69502273 32.45703125 170.99609375 C30.19316546 147.69744298 24.82890384 126.02747796 17 104 C21.29 101.69 25.58 99.38 30 97 C27.08389474 97.97203509 24.20019496 99.00934066 21.3125 100.0625 C19.82169922 100.60583984 19.82169922 100.60583984 18.30078125 101.16015625 C17.54152344 101.43730469 16.78226562 101.71445312 16 102 C8.73993811 80.60947103 2.96318109 59.5338054 1.16308594 36.96142578 C1.02439261 35.29336857 0.84819923 33.62849767 0.6640625 31.96484375 C-0.4645175 21.36534236 -0.08793785 10.64453831 0 0 Z " fill="#FCF1E4" transform="translate(240,247)"/>
<path d="M0 0 C2.00977284 3.0209793 2.84797083 6.4061795 3.8046875 9.8671875 C4.128927 11.00969971 4.128927 11.00969971 4.4597168 12.17529297 C6.73240975 20.35145499 8.62124905 28.33830269 8.2421875 36.8671875 C1.27125892 35.3199814 -6.41985292 32.78934186 -12.2578125 28.6171875 C-16.79396712 25.44187927 -21.53646853 25.73078846 -26.9453125 25.7421875 C-28.17636719 25.73960937 -29.40742188 25.73703125 -30.67578125 25.734375 C-33.67027647 25.65329801 -33.67027647 25.65329801 -35.7578125 26.8671875 C-39.359902 27.14529 -42.96178071 27.31450974 -46.5703125 27.48828125 C-49.84762601 27.54453752 -49.84762601 27.54453752 -51.7578125 29.8671875 C-43.06758968 29.48104812 -43.06758968 29.48104812 -34.5703125 27.8046875 C-25.08855175 25.47310699 -18.67727989 27.2176406 -10.1953125 31.7421875 C-3.71264827 35.12815843 2.01120284 37.58983589 9.2421875 38.8671875 C9.58839167 53.1577262 8.646201 66.88549317 5.2421875 80.8046875 C5.0762207 81.4853125 4.91025391 82.1659375 4.73925781 82.8671875 C3.95504051 85.86847495 3.47364313 87.63573187 1.2421875 89.8671875 C-4.67725911 90.06387797 -10.44989178 89.11772644 -16.0703125 87.3046875 C-20.23004054 85.98865272 -23.35962903 85.08179759 -27.7578125 85.8671875 C-30.41823376 87.51631298 -32.87311373 89.29701834 -35.328125 91.23828125 C-37.87967716 92.94888776 -39.73721364 93.48558159 -42.7578125 93.8671875 C-42.7578125 94.5271875 -42.7578125 95.1871875 -42.7578125 95.8671875 C-35.44173233 93.59340818 -35.44173233 93.59340818 -29.0078125 89.6171875 C-25.8422825 87.15510861 -23.6657449 87.4408676 -19.7578125 87.8671875 C-19.20738281 88.19203125 -18.65695312 88.516875 -18.08984375 88.8515625 C-14.50208965 90.41406847 -10.88284903 90.33795719 -7.0078125 90.4921875 C-6.21503906 90.53085937 -5.42226563 90.56953125 -4.60546875 90.609375 C-2.65661834 90.7032955 -0.70724799 90.78631572 1.2421875 90.8671875 C0.18021635 96.40193128 -0.9946676 101.88915491 -2.3203125 107.3671875 C-4.89765167 118.56169097 -4.87710816 129.44131438 -4.7578125 140.8671875 C-17.42766155 139.31410923 -28.53400772 136.79350806 -38.7578125 128.8671875 C-39.44617188 128.35414063 -40.13453125 127.84109375 -40.84375 127.3125 C-49.4332106 120.43434955 -54.11174076 110.62915846 -58.7578125 100.8671875 C-59.2528125 99.908125 -59.2528125 99.908125 -59.7578125 98.9296875 C-60.96587444 96.43805976 -61.9388971 93.88427101 -62.9453125 91.3046875 C-66.7892642 82.06571587 -73.35248009 68.5698537 -82.7578125 63.8671875 C-82.7578125 63.2071875 -82.7578125 62.5471875 -82.7578125 61.8671875 C-83.54671875 61.54041016 -83.54671875 61.54041016 -84.3515625 61.20703125 C-87.66852718 59.36008501 -90.40651913 56.90921359 -93.2578125 54.4296875 C-98.38546552 49.99718447 -98.38546552 49.99718447 -103.7578125 45.8671875 C-100.82062697 37.25765955 -93.57097492 30.36159358 -87.0703125 24.20703125 C-85.63681817 22.88055821 -85.63681817 22.88055821 -84.7578125 20.8671875 C-84.0978125 20.8671875 -83.4378125 20.8671875 -82.7578125 20.8671875 C-82.7578125 20.2071875 -82.7578125 19.5471875 -82.7578125 18.8671875 C-79.4942508 19.53490472 -76.88112818 20.74662469 -73.9453125 22.3046875 C-66.64098233 26.00483723 -59.84763334 27.24864989 -51.7578125 27.8671875 C-51.7578125 27.2071875 -51.7578125 26.5471875 -51.7578125 25.8671875 C-52.9540625 25.7846875 -54.1503125 25.7021875 -55.3828125 25.6171875 C-63.28342925 24.73794557 -72.6115916 23.17873643 -78.7578125 17.8671875 C-77.42846614 13.87914843 -74.92155597 12.72942433 -71.5078125 10.6171875 C-70.88245605 10.2238623 -70.25709961 9.83053711 -69.61279297 9.42529297 C-49.87303527 -2.84563565 -22.21274144 -14.31487782 0 0 Z " fill="#FDF1E4" transform="translate(472.7578125,241.1328125)"/>
<path d="M0 0 C11.72349546 6.24148404 23.45847182 11.88106905 35.8828125 16.59375 C35.74086486 18.65652107 35.59409034 20.71896031 35.4453125 22.78125 C35.32349609 24.50408203 35.32349609 24.50408203 35.19921875 26.26171875 C34.8828125 29.59375 34.8828125 29.59375 34.36474609 31.84179688 C33.76596754 35.26096193 33.80736126 38.48574115 33.85546875 41.95703125 C33.8681411 43.41731511 33.88050004 44.87760172 33.89257812 46.33789062 C33.91707716 48.60368788 33.94475851 50.86933454 33.97875977 53.13500977 C34.35075347 79.65786806 34.35075347 79.65786806 30.8828125 86.59375 C30.65007041 89.47285588 30.46308493 92.33521495 30.3203125 95.21875 C30.27712891 96.02054688 30.23394531 96.82234375 30.18945312 97.6484375 C30.08329793 99.6300011 29.98254395 101.61185271 29.8828125 103.59375 C28.8928125 104.08875 28.8928125 104.08875 27.8828125 104.59375 C26.03072475 103.72077765 24.18506222 102.83192609 22.37158203 101.88134766 C0.3634888 90.49517111 -23.8035138 80.45396824 -48.8046875 78.96875 C-50.00480469 78.89398437 -51.20492187 78.81921875 -52.44140625 78.7421875 C-53.76591797 78.66871094 -53.76591797 78.66871094 -55.1171875 78.59375 C-55.82681641 76.99273438 -55.82681641 76.99273438 -56.55078125 75.359375 C-58.73491556 70.43541964 -60.92506427 65.51415326 -63.1171875 60.59375 C-63.48585938 59.76568848 -63.85453125 58.93762695 -64.234375 58.08447266 C-66.83813748 52.24331932 -69.46616911 46.41360779 -72.1171875 40.59375 C-72.50052246 39.75038086 -72.88385742 38.90701172 -73.27880859 38.03808594 C-77.65825686 28.44781158 -82.17608587 19.33696915 -88.1171875 10.59375 C-89.6783662 8.26513795 -90.91879487 6.14684735 -92.1171875 3.59375 C-91.29725822 1.09604634 -90.55550769 -0.10416447 -88.3828125 -1.6015625 C-87.38507812 -2.06175781 -87.38507812 -2.06175781 -86.3671875 -2.53125 C-85.71234375 -2.84320312 -85.0575 -3.15515625 -84.3828125 -3.4765625 C-79.39405892 -5.52367173 -74.79108825 -6.68214251 -69.4296875 -7.28125 C-64.82959422 -7.88398759 -60.85069176 -8.72389196 -56.5546875 -10.46875 C-36.25223958 -18.39382836 -17.72818262 -9.445329 0 0 Z " fill="#FDF1E4" transform="translate(812.1171875,634.40625)"/>
<path d="M0 0 C4.39076127 2.97022086 7.98564994 6.89266243 11.375 10.9375 C19.02071091 19.87471613 29.5166579 26.75832895 40 32 C38.84826645 34.46800047 37.95216435 36.04783565 36 38 C33.9765625 38.34375 33.9765625 38.34375 31.625 38.5 C28.20457988 38.72879064 26.0272327 39.42988324 23 41 C20.87890625 41.5625 20.87890625 41.5625 18.5625 42 C17.69625 42.165 16.83 42.33 15.9375 42.5 C11.5674271 43.2438422 7.1789008 43.85096914 2.78515625 44.4375 C-0.19500218 44.85627635 -0.19500218 44.85627635 -3 47 C0.29181873 46.37579921 3.58342561 45.75048786 6.875 45.125 C7.7928125 44.95097656 8.710625 44.77695312 9.65625 44.59765625 C12.43820312 44.06869333 15.219351 43.53577523 18 43 C18.90927246 42.82484863 19.81854492 42.64969727 20.75537109 42.46923828 C21.62500488 42.2989209 22.49463867 42.12860352 23.390625 41.953125 C24.16180664 41.80262695 24.93298828 41.65212891 25.72753906 41.49707031 C31.72166422 40.18593593 37.04037183 38.99257464 41 34 C44.55745616 35.0946019 47.80791089 36.40093442 51.125 38.0625 C64.42091745 43.96686401 77.86812208 39.60265982 90.8125 34.875 C102.60905224 30.59103007 111.12240575 30.08921665 122.98828125 35.31640625 C125.35863028 36.49319905 127.69101397 37.70758083 130 39 C129.85769192 40.41702513 129.71099254 41.8336096 129.5625 43.25 C129.48128906 44.03890625 129.40007812 44.8278125 129.31640625 45.640625 C129 48 129 48 128.48413086 49.78564453 C127.88904582 52.50749089 127.90561418 55.00303897 127.9375 57.7890625 C127.94523438 58.89507813 127.95296875 60.00109375 127.9609375 61.140625 C127.97382812 62.29046875 127.98671875 63.4403125 128 64.625 C128.02543216 66.90880759 128.0464914 69.19266942 128.0625 71.4765625 C128.07410156 72.48799316 128.08570313 73.49942383 128.09765625 74.54150391 C128 77 128 77 127 79 C126.79383847 80.3983908 126.6336472 81.8037638 126.5 83.2109375 C126.4175 84.04367187 126.335 84.87640625 126.25 85.734375 C126.1675 86.60578125 126.085 87.4771875 126 88.375 C125.83604471 90.09140699 125.66946878 91.80756611 125.5 93.5234375 C125.4278125 94.28575684 125.355625 95.04807617 125.28125 95.83349609 C125.00645178 97.9503011 124.56072291 99.94226373 124 102 C110.56737084 97.58988982 98.61398987 91.77786564 86.27734375 84.91796875 C81.89424354 82.48081728 77.48297728 80.12297497 73 77.875 C71.96875 77.35679687 70.9375 76.83859375 69.875 76.3046875 C62.64717426 73.02466875 56.55749637 72.63421006 48.6875 72.625 C47.59759766 72.60050781 46.50769531 72.57601562 45.38476562 72.55078125 C39.13482929 72.52823187 34.64582999 73.1838085 29.08032227 76.02880859 C25.71886908 77.59809163 22.27293571 78.00361578 18.625 78.5 C8.5623636 80.07990117 0.046494 83.39479236 -9 88 C-9.4532666 87.34515625 -9.9065332 86.6903125 -10.37353516 86.015625 C-12.45576756 83.0093124 -14.54036594 80.00464768 -16.625 77 C-17.33785156 75.97003906 -18.05070313 74.94007813 -18.78515625 73.87890625 C-26.6419141 62.51642672 -26.6419141 62.51642672 -35.5 51.9375 C-38.13235448 49.0578102 -40.73448286 46.16981413 -43.25 43.1875 C-45.69547119 40.30848267 -48.29130864 37.63548348 -51 35 C-52 34 -53 33 -54 32 C-53.5625 29.6875 -53.5625 29.6875 -52 27 C-49.98558894 26.31714879 -47.96308412 25.65268711 -45.9140625 25.08203125 C-40.67722578 23.13752217 -36.08371045 19.9976545 -31.35546875 17.05859375 C-28 15 -28 15 -25.67578125 13.97265625 C-23.83958619 13.13042008 -23.83958619 13.13042008 -23.21875 11.16796875 C-21.25583945 7.67625287 -17.91638787 6.25058171 -14.5 4.3125 C-13.81035156 3.90966797 -13.12070312 3.50683594 -12.41015625 3.09179688 C-4.74671809 -1.3673382 -4.74671809 -1.3673382 0 0 Z " fill="#FCF1E4" transform="translate(726,545)"/>
<path d="M0 0 C6.97784962 2.21255424 13.54536576 4.52442772 20 8 C18.58852631 17.6269744 12.60173596 26.93787465 6.3828125 34.23046875 C4.79383536 36.06019872 4.79383536 36.06019872 4 39 C4.66 39 5.32 39 6 39 C4.96188521 41.50877741 4.26886957 42.81515217 2 44.375 C-0.67715172 46.55018577 -1.12772142 48.72895533 -2 52 C-1.34 52 -0.68 52 0 52 C0.05671875 51.08992187 0.1134375 50.17984375 0.171875 49.2421875 C1.23750198 45.07015736 2.65170797 44.36671669 6.25 42.125 C11.34878527 38.68166449 14.33440676 35.51234331 17 30 C17.33 29.34 17.66 28.68 18 28 C18.99 28 19.98 28 21 28 C21.12246094 27.29488281 21.24492188 26.58976563 21.37109375 25.86328125 C22.03405201 22.84496817 22.98175575 20.08110558 24.0625 17.1875 C24.42472656 16.21167969 24.78695312 15.23585938 25.16015625 14.23046875 C25.57587891 13.12638672 25.57587891 13.12638672 26 12 C31.01535216 13.71525044 35.28386908 16.51931347 39.75 19.3125 C48.15913893 24.55039586 56.67500108 29.43119333 65.5625 33.8125 C69.8653461 35.93792165 74.15895504 38.07311742 78.4140625 40.29296875 C79.13005615 40.66252686 79.8460498 41.03208496 80.58374023 41.4128418 C81.95455742 42.12123787 83.32150035 42.83719793 84.68383789 43.56176758 C88.26896048 45.40039883 90.95190384 46.43344816 95 46 C95 46.99 95 47.98 95 49 C95.81339844 49.2475 96.62679687 49.495 97.46484375 49.75 C101.64882796 51.22941983 105.56895653 53.07472839 109.5625 55 C116.19789633 58.18873211 116.19789633 58.18873211 123 61 C119.24875622 66.69154229 119.24875622 66.69154229 117.4375 68.9375 C115.82211769 71.07245859 115.82211769 71.07245859 114.8125 74.1875 C113.09742063 78.40785238 110.20370024 81.28476019 107.13671875 84.58984375 C103.09569187 89.14800387 98.94037367 94.17887898 97 100 C96.34 100 95.68 100 95 100 C94.73574219 100.56589844 94.47148438 101.13179687 94.19921875 101.71484375 C92.9124837 104.16676559 91.43016658 106.31553521 89.8125 108.5625 C86.01123686 113.9210033 82.48325263 119.43103075 79 125 C75.14301788 124.44416075 72.71943611 123.38718951 69.5625 121.125 C64.23652216 117.33298 58.96460515 114.91136686 52.73168945 113.05981445 C39.87009533 109.18678547 27.96697454 103.5124539 15.90527344 97.68676758 C14.49548401 97.00593661 13.08565428 96.32518908 11.67578125 95.64453125 C11.00408905 95.31983353 10.33239685 94.9951358 9.64035034 94.66059875 C4.51676579 92.20227548 -0.67177544 89.9818642 -6 88 C-6.05802698 84.56257082 -6.09360486 81.12526747 -6.125 77.6875 C-6.14175781 76.71103516 -6.15851562 75.73457031 -6.17578125 74.72851562 C-6.18222656 73.79072266 -6.18867187 72.85292969 -6.1953125 71.88671875 C-6.20578613 71.02264404 -6.21625977 70.15856934 -6.22705078 69.26831055 C-6 67 -6 67 -4 64 C-3.69357546 61.82550139 -3.69357546 61.82550139 -3.72875977 59.39941406 C-3.71857315 58.46703918 -3.70838654 57.53466431 -3.69789124 56.57403564 C-3.69575119 55.56476013 -3.69361115 54.55548462 -3.69140625 53.515625 C-3.66620972 51.36067481 -3.64081234 49.20572695 -3.61523438 47.05078125 C-3.5867139 43.6678144 -3.56269589 40.28488924 -3.54370117 36.90185547 C-3.45898651 24.27285457 -3.26117493 12.26411929 0 0 Z " fill="#FCF1E4" transform="translate(851,653)"/>
<path d="M0 0 C1.3413113 2.68262259 1.2670399 4.94256358 1.4296875 7.94140625 C1.5013916 9.15626709 1.5730957 10.37112793 1.64697266 11.62280273 C1.72222168 12.92290283 1.7974707 14.22300293 1.875 15.5625 C2.37176844 23.7739298 2.91338412 31.87454128 4.625 39.9375 C10.02372732 67.65096692 3.01821269 93.14120955 -11.875 116.625 C-14.07061728 119.81540395 -14.07061728 119.81540395 -15 123 C-15.72380859 122.70939697 -16.44761719 122.41879395 -17.19335938 122.11938477 C-21.61504375 120.35586503 -26.05672427 118.645747 -30.5 116.9375 C-31.43714844 116.57333984 -32.37429688 116.20917969 -33.33984375 115.83398438 C-34.24863281 115.48529297 -35.15742187 115.13660156 -36.09375 114.77734375 C-36.91552734 114.46015381 -37.73730469 114.14296387 -38.58398438 113.81616211 C-41.04092494 112.98617501 -43.44888206 112.45235206 -46 112 C-46 111.34 -46 110.68 -46 110 C-46.67546875 109.74476563 -47.3509375 109.48953125 -48.046875 109.2265625 C-51.53745708 107.77677047 -54.8846752 106.08916051 -58.25 104.375 C-66.75424331 100.07887709 -75.36228852 96.0195291 -84 92 C-84 87.57998499 -83.15107686 86.0143845 -81 82.25 C-80.443125 81.26515625 -79.88625 80.2803125 -79.3125 79.265625 C-78.879375 78.51796875 -78.44625 77.7703125 -78 77 C-79.31818554 78.43228816 -80.62936704 79.87102484 -81.9375 81.3125 C-82.66839844 82.11300781 -83.39929688 82.91351562 -84.15234375 83.73828125 C-86.17951559 85.94639398 -86.17951559 85.94639398 -87 89 C-91.03400649 88.33264584 -94.23390872 86.24867917 -97.6875 84.1875 C-103.00093699 81.07584017 -108.30045121 78.35843398 -114 76 C-112.44627498 71.53410184 -110.06387508 67.77029228 -107.4375 63.875 C-106.77041016 62.87932007 -106.77041016 62.87932007 -106.08984375 61.86352539 C-102.75328499 56.95288342 -99.13069979 52.3728679 -95.3046875 47.83203125 C-92.60885887 44.51936048 -90.10342657 41.10178251 -87.625 37.625 C-86.99948242 36.74992798 -86.99948242 36.74992798 -86.36132812 35.85717773 C-84.64987144 33.43691833 -83.05956043 31.12584542 -81.7890625 28.44140625 C-78.92980018 24.53957448 -74.9232829 22.63978599 -70.75 20.3125 C-69.49896484 19.58450195 -69.49896484 19.58450195 -68.22265625 18.84179688 C-63.54520638 16.17998278 -59.24739724 14.21257423 -54 13 C-52.43990868 19.98254465 -51.43869989 26.85837389 -51 34 C-50.93425781 34.88171875 -50.86851562 35.7634375 -50.80078125 36.671875 C-50.53558651 42.70734141 -51.5442068 46.03229727 -55 51 C-53.02 49.68 -51.04 48.36 -49 47 C-48.6596875 47.969375 -48.319375 48.93875 -47.96875 49.9375 C-43.99779987 61.00520077 -39.55087152 72.17369271 -33 82 C-32.76953125 83.9375 -32.76953125 83.9375 -32.8125 86 C-32.81894531 86.680625 -32.82539062 87.36125 -32.83203125 88.0625 C-33 90 -33 90 -34 93 C-33.34 93 -32.68 93 -32 93 C-31.86722656 92.28972656 -31.73445312 91.57945312 -31.59765625 90.84765625 C-31.42105469 89.92855469 -31.24445313 89.00945312 -31.0625 88.0625 C-30.88847656 87.14597656 -30.71445312 86.22945312 -30.53515625 85.28515625 C-30 83 -30 83 -29 82 C-28.43755047 75.96715092 -29.9118443 72.16214702 -32.5625 66.9375 C-32.91948975 66.20088135 -33.27647949 65.4642627 -33.64428711 64.70532227 C-35.39499023 61.11462205 -37.21667257 57.57182123 -39.125 54.0625 C-39.45169678 53.44898682 -39.77839355 52.83547363 -40.11499023 52.20336914 C-41.00710757 50.54073459 -41.92652987 48.89283391 -42.84765625 47.24609375 C-44.07752594 43.78161336 -43.86905586 41.6281242 -43.24536133 38.05053711 C-42.83587133 34.62834157 -43.5887667 31.39142938 -44.3125 28.0625 C-44.45276611 27.37027344 -44.59303223 26.67804687 -44.73754883 25.96484375 C-45.14467698 23.97371442 -45.57184607 21.98671426 -46 20 C-46.21398437 18.99839844 -46.42796875 17.99679687 -46.6484375 16.96484375 C-47.08400372 14.97323299 -47.53899305 12.98587611 -48 11 C-45.7125952 10.1734844 -43.42118872 9.36395818 -41.125 8.5625 C-40.17753906 8.21735352 -40.17753906 8.21735352 -39.2109375 7.86523438 C-34.66134626 6.2956254 -30.41849602 5.68173958 -25.63232422 5.29321289 C-20.9928574 4.77642568 -16.5182799 3.58149002 -12 2.4375 C-10.14630094 1.97598233 -8.29215535 1.51625331 -6.4375 1.05859375 C-5.63183594 0.85548584 -4.82617188 0.65237793 -3.99609375 0.44311523 C-2 0 -2 0 0 0 Z " fill="#FCF1E4" transform="translate(994,585)"/>
<path d="M0 0 C4.59432489 1.69359427 8.81916733 3.94257042 13.125 6.25 C14.26376587 6.85606079 14.26376587 6.85606079 15.42553711 7.47436523 C19.48805425 9.64055171 23.53267787 11.83597727 27.5625 14.0625 C29.37494799 15.04176294 31.18745173 16.02092268 33 17 C34.11632812 17.62648438 35.23265625 18.25296875 36.3828125 18.8984375 C53.25455507 28.08305475 72.06506506 32.48968666 91 35 C90.505 35.99 90.505 35.99 90 37 C82.85174868 36.48358641 76.00472227 35.52276571 69 34 C69 38.62 69 43.24 69 48 C64.58983859 44.47187087 63.19780428 43.13776447 60.8125 38.4375 C59.3008654 35.49798892 57.83614703 32.75422054 56 30 C58.05976953 37.64282903 61.34997392 44.34997392 67 50 C67.58156267 52.10081758 68.06917522 54.22804192 68.5078125 56.36328125 C68.77207031 57.64267578 69.03632812 58.92207031 69.30859375 60.24023438 C69.44249512 60.90885498 69.57639648 61.57747559 69.71435547 62.26635742 C70.12172313 64.29617214 70.54229563 66.32290685 70.96484375 68.34960938 C73.17908345 79.20810995 73.17908345 79.20810995 73 84 C67.30601106 86.09570426 62.04801071 87.45018084 56 88 C61.28517669 88.18224747 64.98380027 87.82407263 70 86 C71.32 86 72.64 86 74 86 C74.495 91.94 74.495 91.94 75 98 C67.20029225 98.63932031 61.75844926 96.93790864 55 93 C52.3125 90.625 52.3125 90.625 50 88 C48.68752484 86.72811686 47.35234606 85.47940551 46 84.25 C45.360625 83.65703125 44.72125 83.0640625 44.0625 82.453125 C41.70210193 80.79011727 39.83844693 80.3745173 37 80 C37 80.66 37 81.32 37 82 C38.04542969 82.21914063 39.09085938 82.43828125 40.16796875 82.6640625 C44.35377889 83.86121051 46.42836656 86.11010843 49.3125 89.375 C56.98757226 97.567478 65.1524064 99.43266708 76 101 C77.57166875 105.43483921 78.6906649 109.82716973 79.625 114.4375 C80.01558594 116.32275391 80.01558594 116.32275391 80.4140625 118.24609375 C80.98530188 121.90583405 81.04144591 125.30440662 81 129 C75.09647888 129.84056504 69.19233434 130.67656169 63.28759766 131.50854492 C61.28384438 131.79150542 59.28025918 132.075659 57.27685547 132.36108398 C41.17158687 134.65437784 25.52718713 136.15943156 9.25 136.0625 C7.76302236 136.05746985 6.27604305 136.05290965 4.7890625 136.04882812 C1.19267294 136.03795432 -2.40365237 136.0207752 -6 136 C-9.00352004 121.99673316 -6.77892755 108.97019362 -2.72314453 95.50146484 C-1.16958995 90.12748773 0.07579555 84.66968202 1.38745117 79.23266602 C2.89360937 73.10639063 2.89360937 73.10639063 4 72 C5.73327427 72.14468559 7.46231762 72.34132277 9.1875 72.5625 C13.76882018 73.03541047 16.6749201 72.6710536 21 71 C23.33212027 70.92477031 25.6685311 70.90674124 28 71 C28 70.01 28 69.02 28 68 C26.51988629 68.30798326 25.04092675 68.621518 23.5625 68.9375 C22.32693359 69.19853516 22.32693359 69.19853516 21.06640625 69.46484375 C19.02338796 69.80752994 19.02338796 69.80752994 18 71 C15.64305046 70.90968426 13.28846418 70.75311872 10.9375 70.5625 C9.64714844 70.46066406 8.35679687 70.35882813 7.02734375 70.25390625 C5.52880859 70.12822266 5.52880859 70.12822266 4 70 C4.10135254 69.33282959 4.20270508 68.66565918 4.30712891 67.97827148 C7.35987331 47.18300505 9.84298632 19.68597264 0 0 Z " fill="#FCF1E4" transform="translate(483,246)"/>
<path d="M0 0 C5.26026118 11.00533906 9.62885406 22.38434567 13.7578125 33.85546875 C18.79585418 47.85081275 24.63976076 61.04742212 32 74 C32.6290625 75.11117187 33.258125 76.22234375 33.90625 77.3671875 C36.5922012 82.0944356 39.28885169 86.81411787 42.06640625 91.48828125 C42.70449219 92.56464844 43.34257813 93.64101563 44 94.75 C44.5775 95.71421875 45.155 96.6784375 45.75 97.671875 C47 100 47 100 47 102 C46.38705078 102.26103516 45.77410156 102.52207031 45.14257812 102.79101562 C30.50881196 108.99634352 30.50881196 108.99634352 16.25 116 C5.02619811 121.85426543 -7.09053361 125.79149208 -19 130 C-19.81549316 130.29068359 -20.63098633 130.58136719 -21.47119141 130.88085938 C-29.86857105 133.85927805 -38.27563648 136.1903934 -47 138 C-47.45642049 113.75002816 -44.57390066 91.33019464 -39.43165588 67.69871521 C-38.32121484 62.57276672 -37.29209275 57.43534208 -36.30078125 52.28515625 C-28.66396362 12.89112251 -28.66396362 12.89112251 -22 5 C-15.46746171 0.76178145 -7.62534239 0 0 0 Z " fill="#FDF1E5" transform="translate(540,666)"/>
<path d="M0 0 C5.61894604 -0.34936452 9.66259739 0.85733132 14.75 3 C26.55787703 7.57701177 38.44123355 6.65173032 50.828125 5.2421875 C61.97787002 3.99887061 71.59593664 6.35904473 80.6875 13.25 C82.96691905 15.15710015 85.14648399 17.13709716 87.31640625 19.16796875 C102.06913659 32.926133 122.4253047 43.47179512 142.75 45.125 C144.39081133 45.27136345 146.03144442 45.41974158 147.671875 45.5703125 C148.81039917 45.67243042 148.81039917 45.67243042 149.97192383 45.77661133 C152 46 152 46 154.74609375 46.58203125 C157.40431256 47.07497651 159.63381075 46.88394271 162.3125 46.5625 C163.19550781 46.46066406 164.07851562 46.35882812 164.98828125 46.25390625 C165.65214844 46.17011719 166.31601563 46.08632813 167 46 C167 46.66 167 47.32 167 48 C164.525 48.495 164.525 48.495 162 49 C163.32 49.66 164.64 50.32 166 51 C165.71125 52.28390625 165.4225 53.5678125 165.125 54.890625 C162.4432596 67.44007059 161.50453611 79.18675321 162 92 C158.67543278 90.79106647 156.15090647 89.50813693 153.4375 87.25 C138.01861865 75.53621029 117.1557695 70.62320743 98 73 C87.66150468 74.82262318 77.84792582 78.32645148 68.046875 81.99609375 C63.98254026 83.33523994 60.26177222 83.77956351 56 84 C55.63648438 82.96101562 55.27296875 81.92203125 54.8984375 80.8515625 C51.99405494 72.72299988 49.01427742 65.1046622 44 58 C43.56300781 57.37996094 43.12601563 56.75992188 42.67578125 56.12109375 C33.65087702 44.56197573 17.20943536 35.99666951 3.48046875 31.45703125 C2.33191406 30.97621094 1.18335938 30.49539063 0 30 C-1.0280169 27.33564914 -1.12812531 24.78820261 -1.1328125 21.953125 C-1.13410156 21.19 -1.13539063 20.426875 -1.13671875 19.640625 C-1.13091797 18.45726562 -1.13091797 18.45726562 -1.125 17.25 C-1.12886719 16.4765625 -1.13273438 15.703125 -1.13671875 14.90625 C-1.12823958 9.85266247 -0.71951225 5.00232323 0 0 Z " fill="#FCF1E4" transform="translate(944,492)"/>
<path d="M0 0 C1.90845703 0.00676758 1.90845703 0.00676758 3.85546875 0.01367188 C6.94536493 0.02528803 10.03515497 0.04161833 13.125 0.0625 C12.62378452 25.47495582 10.36400175 44.43698278 -3.51513672 65.93945312 C-5.30566346 68.73486077 -7.04814564 71.55877946 -8.79223633 74.38330078 C-13.82580539 82.52330656 -19.10823879 90.41938962 -24.875 98.0625 C-43.24635443 95.05080255 -58.2609865 81.16269994 -68.875 66.5 C-79.02451833 52.07762094 -86.24179977 36.54516787 -92.25 20 C-92.51321045 19.28529541 -92.7764209 18.57059082 -93.04760742 17.83422852 C-95.50419864 10.87264729 -95.50419864 10.87264729 -94.875 7.0625 C-91.02950654 4.49883769 -88.01895631 4.92417895 -83.58203125 5.05859375 C-72.4860062 5.2245906 -61.59360217 4.22234467 -50.5625 3.125 C-46.77501626 2.75882192 -42.98713963 2.39678214 -39.19921875 2.03515625 C-37.83893555 1.90512962 -37.83893555 1.90512962 -36.45117188 1.7724762 C-24.26827001 0.61516481 -12.24398809 -0.08421791 0 0 Z " fill="#FDF1E4" transform="translate(405.875,669.9375)"/>
<path d="M0 0 C2.4375 2.1875 2.4375 2.1875 5 5 C5.79921875 5.73476563 6.5984375 6.46953125 7.421875 7.2265625 C10.26717046 10.28741065 12.00417975 13.47325264 13.8125 17.1875 C17.20274696 23.80678274 21.03609612 29.42790609 26 35 C26.78761719 35.89589844 27.57523437 36.79179688 28.38671875 37.71484375 C32.54450213 42.34496126 36.76173991 46.80884257 41.296875 51.07421875 C42.03292969 51.77659668 42.76898437 52.47897461 43.52734375 53.20263672 C44.98698046 54.58820135 46.46325808 55.95648368 47.95703125 57.30517578 C52.97578924 62.09064372 52.97578924 62.09064372 53.09765625 66.66796875 C51.8137021 70.56552353 50.2512029 73.95992845 48.30078125 77.55859375 C46.98430088 79.91025414 46.98430088 79.91025414 46.16796875 82.16015625 C45.375 84.0625 45.375 84.0625 43 87 C39.34967776 88.10980493 35.79078027 87.98106503 32 88 C30.25251465 88.01933594 30.25251465 88.01933594 28.46972656 88.0390625 C18.09977989 88.10253578 7.83300489 87.61176216 -2.51123047 86.92993164 C-18.67397081 85.87890336 -34.78910724 85.5065904 -51 85 C-51 61.57 -51 38.14 -51 14 C-41.1 11.03 -41.1 11.03 -31 8 C-27.98939453 7.09507812 -27.98939453 7.09507812 -24.91796875 6.171875 C-24.11166016 5.92953125 -23.30535156 5.6871875 -22.47460938 5.4375 C-20.89898919 4.96387207 -19.32347451 4.48989305 -17.74804688 4.015625 C-16.20426531 3.55186042 -14.65987312 3.09012136 -13.11474609 2.63085938 C-11.13223264 2.03944691 -9.15383955 1.43427157 -7.17578125 0.828125 C-4 0 -4 0 0 0 Z " fill="#FDF1E4" transform="translate(473,580)"/>
<path d="M0 0 C-0.33 23.1 -0.66 46.2 -1 70 C-10.24 70.33 -19.48 70.66 -29 71 C-36.88618881 71.60469179 -44.75363557 72.24918459 -52.625 73 C-54.58066426 73.18039261 -56.53639371 73.36007971 -58.4921875 73.5390625 C-67.56557001 74.36813617 -67.56557001 74.36813617 -76.63113403 75.27732849 C-81.03203036 75.73920976 -85.35823372 76.12434799 -89.7890625 76.09765625 C-90.74941406 76.09443359 -91.70976562 76.09121094 -92.69921875 76.08789062 C-93.66472656 76.07951172 -94.63023437 76.07113281 -95.625 76.0625 C-96.62917969 76.05798828 -97.63335937 76.05347656 -98.66796875 76.04882812 C-101.11204471 76.03718967 -103.5559882 76.0208424 -106 76 C-106.33 77.32 -106.66 78.64 -107 80 C-107.66 80 -108.32 80 -109 80 C-110.13788476 74.96533669 -111.25943053 69.92733665 -112.36621094 64.88574219 C-112.80770158 62.87556523 -113.25121523 60.86583196 -113.69628906 58.85644531 C-114.41118343 55.61461821 -115.1131273 52.37020743 -115.8125 49.125 C-116.04348389 48.08537109 -116.27446777 47.04574219 -116.51245117 45.97460938 C-116.7210376 44.99556641 -116.92962402 44.01652344 -117.14453125 43.0078125 C-117.33378174 42.13785645 -117.52303223 41.26790039 -117.71801758 40.37158203 C-118.00829913 37.93020106 -117.76067706 36.31860543 -117 34 C-116.03320312 33.89042969 -115.06640625 33.78085937 -114.0703125 33.66796875 C-112.76835937 33.50941406 -111.46640625 33.35085938 -110.125 33.1875 C-108.84882813 33.03667969 -107.57265625 32.88585937 -106.2578125 32.73046875 C-101.34510652 31.9925532 -96.71959324 30.5199891 -92 29 C-91.00774414 28.68490479 -90.01548828 28.36980957 -88.99316406 28.04516602 C-85.51331507 26.93496095 -82.0376213 25.81241453 -78.5625 24.6875 C-77.23756239 24.25947951 -75.91261077 23.83150236 -74.58764648 23.40356445 C-66.37743103 20.74981013 -58.17229633 18.08054139 -49.96875 15.40625 C-48.55298927 14.94482353 -48.55298927 14.94482353 -47.10862732 14.47407532 C-42.44699223 12.9545615 -37.7857651 11.43381627 -33.12524414 9.91088867 C-25.03979315 7.27101997 -16.95044481 4.64375186 -8.83984375 2.08203125 C-8.17247696 1.86923019 -7.50511017 1.65642914 -6.81752014 1.43717957 C-2.23397299 0 -2.23397299 0 0 0 Z " fill="#FDF1E5" transform="translate(419,595)"/>
<path d="M0 0 C0.66 0 1.32 0 2 0 C2.92409946 3.4679016 3.77896439 6.94980633 4.625 10.4375 C4.88023437 11.39205078 5.13546875 12.34660156 5.3984375 13.33007812 C9.09809458 29.00223657 4.09671828 45.09398943 0.4375 60.375 C0.02065649 62.15084754 -0.39536306 63.9268887 -0.81054688 65.703125 C-3.77841516 78.33524547 -3.77841516 78.33524547 -5 82 C-5.20491503 84.79481332 -5.37237618 87.57672953 -5.5 90.375 C-5.56948007 91.88297477 -5.6423138 93.39079932 -5.71875 94.8984375 C-5.74904297 95.56536621 -5.77933594 96.23229492 -5.81054688 96.91943359 C-6.02974938 99.32670646 -6.49220211 101.63832865 -7 104 C-18.04784083 104.13382311 -28.97937862 103.75601869 -40 103 C-41.46871861 102.90316855 -42.93746865 102.80681266 -44.40625 102.7109375 C-47.93787693 102.4794021 -51.46904314 102.24156473 -55 102 C-54.9685791 101.13387085 -54.9685791 101.13387085 -54.93652344 100.25024414 C-54.43307829 84.16389726 -55.5054943 70.37705085 -62.125 55.57421875 C-62.57728722 54.5518084 -62.57728722 54.5518084 -63.03871155 53.50874329 C-66.97046794 44.70807179 -71.26755825 36.08101688 -75.54858398 27.4465332 C-76.61948477 25.2832143 -77.68319787 23.11647912 -78.74609375 20.94921875 C-79.07411484 20.29306076 -79.40213593 19.63690277 -79.74009705 18.96086121 C-81.13769077 16.10306106 -82 14.22664163 -82 11 C-81.04673828 10.96559814 -80.09347656 10.93119629 -79.11132812 10.89575195 C-61.77398425 10.24124949 -44.58281855 9.32571455 -27.4375 6.5625 C-26.15746094 6.35729736 -24.87742187 6.15209473 -23.55859375 5.94067383 C-10.97041765 4.74053829 -10.97041765 4.74053829 0 0 Z " fill="#FDF1E5" transform="translate(563,381)"/>
<path d="M0 0 C1.16660156 0.16113281 2.33320312 0.32226562 3.53515625 0.48828125 C7.49266117 1.41301385 10.96398926 2.23411414 14 5 C17.07380961 10.46721537 18.24476938 16.71852286 19.49804688 22.80859375 C20.07519939 25.32830239 21.03269851 27.60812722 22 30 C22 31.32 22 32.64 22 34 C20.61663414 34.97847829 19.21979156 35.94271813 17.765625 36.8125 C15.8036559 38.13205444 14.3198248 39.60389834 12.6875 41.3125 C5.59793549 48.52429838 -2.14251441 53.23532024 -11.00341797 57.95410156 C-16.31246361 60.85825068 -20.85611202 64.12424555 -25.4375 68.0625 C-33.40380881 74.88434392 -42.41191194 78.91293555 -52 83 C-52.49628906 82.154375 -52.99257813 81.30875 -53.50390625 80.4375 C-57.09423256 74.41062666 -60.67398525 68.86070994 -65.48046875 63.70703125 C-67 62 -67 62 -69.0625 58.75 C-70.82494001 55.82970311 -70.82494001 55.82970311 -73.84765625 54.3984375 C-78.08243771 51.17643525 -79.41028023 47.71417359 -81.375 42.875 C-81.72949219 42.05128906 -82.08398438 41.22757813 -82.44921875 40.37890625 C-85 34.36142616 -85 34.36142616 -85 32 C-84.030625 31.63648438 -83.06125 31.27296875 -82.0625 30.8984375 C-81.42256104 30.65843018 -80.78262207 30.41842285 -80.12329102 30.17114258 C-78.69156764 29.63430805 -77.25976244 29.09769172 -75.82788086 28.5612793 C-72.11380854 27.16956572 -68.40101675 25.77466106 -64.69140625 24.37109375 C-63.31511263 23.85154009 -61.93881072 23.33200837 -60.5625 22.8125 C-59.89661865 22.55992432 -59.2307373 22.30734863 -58.54467773 22.04711914 C-54.91412653 20.68004011 -51.27370643 19.43995512 -47.5625 18.3125 C-46.386875 17.879375 -45.21125 17.44625 -44 17 C-43.505 15.515 -43.505 15.515 -43 14 C-40 15 -40 15 -39 16 C-38.505 14.515 -38.505 14.515 -38 13 C-35.450307 11.59482254 -32.96453751 10.3671679 -30.3125 9.1875 C-29.1680542 8.66845093 -29.1680542 8.66845093 -28.00048828 8.13891602 C-26.43065228 7.42973142 -24.85868656 6.72524298 -23.28466797 6.02539062 C-21.17745752 5.07964539 -19.08961375 4.10141563 -17.00390625 3.109375 C-15.80636719 2.55765625 -14.60882812 2.0059375 -13.375 1.4375 C-12.31023437 0.94121094 -11.24546875 0.44492187 -10.1484375 -0.06640625 C-6.31337245 -1.20360296 -3.89756505 -0.80787456 0 0 Z " fill="#FDF1E5" transform="translate(601,774)"/>
<path d="M0 0 C9.50880616 0.02980817 15.24110574 1.66501757 23 7 C25.11656013 8.2436434 27.24181634 9.47259129 29.375 10.6875 C34.67291532 13.72786037 34.67291532 13.72786037 36.9765625 15.64453125 C39.5835978 17.39094293 41.91523597 17.64945863 45 18 C45.14695312 19.05574219 45.29390625 20.11148437 45.4453125 21.19921875 C47.75313455 36.77835416 51.84500587 51.89742723 57.43359375 66.625 C58.09693266 69.40644868 57.74696575 71.26600771 57 74 C47.92118714 77.06540377 38.82361125 80.04790623 29.6640625 82.86328125 C27.46402199 83.54580981 25.26915396 84.24590128 23.0859375 84.98046875 C22.25320312 85.25503906 21.42046875 85.52960938 20.5625 85.8125 C19.54349609 86.16248047 19.54349609 86.16248047 18.50390625 86.51953125 C10.24983556 88.10338569 2.80869607 86.25138485 -5.1875 84.125 C-6.24130859 83.85558594 -7.29511719 83.58617187 -8.38085938 83.30859375 C-13.31531987 82.03378039 -18.19454199 80.7097139 -23 79 C-21.17009885 75.17463521 -18.92663688 71.68192584 -16.6328125 68.12109375 C-11.97700763 59.22160071 -10.08466412 50.10634357 -8.5625 40.25 C-7.00768498 30.71726996 -5.31974765 21.24782493 -3.25 11.8125 C-3.03931885 10.84538086 -2.8286377 9.87826172 -2.61157227 8.88183594 C-1.14122888 2.28245776 -1.14122888 2.28245776 0 0 Z " fill="#FDF1E4" transform="translate(189,279)"/>
<path d="M0 0 C1.22332031 0.28101563 2.44664062 0.56203125 3.70703125 0.8515625 C7.50169014 1.70868451 11.2999407 2.38407371 15.13671875 3.0234375 C31.83804337 6.24422759 31.83804337 6.24422759 35.71728516 11.18896484 C38.44116976 16.84694091 39.33571675 22.80850514 40 29 C40.32808194 31.00086815 40.65868642 33.00134642 41 35 C40.04738281 35.45890625 39.09476563 35.9178125 38.11328125 36.390625 C36.84619428 37.01008974 35.5792761 37.62989981 34.3125 38.25 C33.68666016 38.55035156 33.06082031 38.85070312 32.41601562 39.16015625 C28.54561174 41.06496235 25.2880939 43.15828214 22 46 C30.16546296 42.02931483 30.16546296 42.02931483 38.0625 37.5625 C39.031875 37.046875 40.00125 36.53125 41 36 C44 37 44 37 45.75 40.375 C46.0903125 41.09558594 46.430625 41.81617188 46.78125 42.55859375 C50.59642715 50.20117617 55.45669522 56.75102659 61.21484375 63.01953125 C66.39023498 68.76115784 71 76.1381328 71 84 C69.92621094 84.51949219 68.85242188 85.03898438 67.74609375 85.57421875 C66.30973435 86.2783165 64.8735455 86.98276225 63.4375 87.6875 C62.73302734 88.02716797 62.02855469 88.36683594 61.30273438 88.71679688 C57.6811125 90.50257356 54.45444091 92.34232907 51.26171875 94.82421875 C48 97 48 97 45.5859375 97.0078125 C44.85632813 96.71648437 44.12671875 96.42515625 43.375 96.125 C42.51777344 95.80015625 41.66054688 95.4753125 40.77734375 95.140625 C39.86082031 94.76421875 38.94429687 94.3878125 38 94 C37.03191406 93.66484375 36.06382812 93.3296875 35.06640625 92.984375 C27.04778623 90.14131871 19.71225986 86.33785354 12.2578125 82.29296875 C6.25229197 79.03482969 0.12783392 76.02021609 -6 73 C-6.4765241 66.56692468 -6.36289086 60.10028087 -2 55 C1.88603005 52.96329894 6.10565237 51.96199326 10.34765625 50.9375 C14.05914781 50.19920076 14.05914781 50.19920076 17 48 C11.44021484 49.11721451 6.16606723 50.53255699 0.84765625 52.51171875 C-1 53 -1 53 -3 52 C-2.86155153 48.20802551 -2.71299256 44.4165141 -2.5625 40.625 C-2.52318359 39.54476562 -2.48386719 38.46453125 -2.44335938 37.3515625 C-2.40146484 36.3203125 -2.35957031 35.2890625 -2.31640625 34.2265625 C-2.27974854 33.27346191 -2.24309082 32.32036133 -2.20532227 31.33837891 C-2 29 -2 29 -1 27 C-0.84588894 24.9692523 -0.75017547 22.93393579 -0.68359375 20.8984375 C-0.64169922 19.68671875 -0.59980469 18.475 -0.55664062 17.2265625 C-0.51732422 15.95554687 -0.47800781 14.68453125 -0.4375 13.375 C-0.39431641 12.09625 -0.35113281 10.8175 -0.30664062 9.5 C-0.20030114 6.33344652 -0.09827167 3.16681247 0 0 Z " fill="#FDF1E4" transform="translate(866,507)"/>
<path d="M0 0 C3.611148 0.70596705 6.54929066 2.18802118 9.8046875 3.87890625 C10.9388208 4.46631592 12.0729541 5.05372559 13.24145508 5.65893555 C14.45294183 6.29287429 15.66411792 6.92740705 16.875 7.5625 C17.4863681 7.88223785 18.09773621 8.20197571 18.72763062 8.53140259 C22.82491973 10.67542141 26.91371521 12.8350892 31 15 C31.79519043 15.41797852 32.59038086 15.83595703 33.40966797 16.26660156 C48.17238299 24.07300661 61.28379796 33.17831651 68.1875 48.75 C71.71898356 56.48042964 75.59941552 63.92033728 79.81323242 71.29980469 C80.21517822 72.00524414 80.61712402 72.71068359 81.03125 73.4375 C81.38767578 74.05496094 81.74410156 74.67242188 82.11132812 75.30859375 C83 77 83 77 84 80 C78.82258443 79.42614378 73.64973345 78.82262878 68.47875977 78.19335938 C66.72544787 77.9840087 64.97120516 77.78228749 63.21606445 77.58886719 C51.98269754 76.34463471 43.01465171 74.4702421 33 69 C31.68428737 68.37562988 30.36464581 67.75938071 29.0390625 67.15625 C16.87121131 61.25331075 5.47140984 54.14249401 -6 47 C-16.26886681 40.58553781 -16.26886681 40.58553781 -27 35 C-20.97073629 26.74818418 -14.58679786 18.79169058 -7.6875 11.25 C-4.49312254 7.71131839 -2.16529225 4.24036399 0 0 Z " fill="#FDF1E4" transform="translate(978,717)"/>
<path d="M0 0 C2.77117288 7.2014622 5.23828178 14.49609534 7.6875 21.8125 C8.31108398 23.65231445 8.31108398 23.65231445 8.94726562 25.52929688 C9.33978516 26.70169922 9.73230469 27.87410156 10.13671875 29.08203125 C10.49467529 30.14655518 10.85263184 31.2110791 11.22143555 32.30786133 C12 35 12 35 12 38 C10.96101562 38.47308594 9.92203125 38.94617188 8.8515625 39.43359375 C-4.31577524 45.59881244 -12.87010286 53.54136537 -22.24584961 64.53662109 C-30.25846329 73.88882323 -37.85306571 81.40745412 -50.5625 82.75 C-52.04136062 82.83859881 -53.52049905 82.92282861 -55 83 C-57.62633066 77.81127423 -60.20444231 72.60458726 -62.68359375 67.34375 C-63.13669922 66.38339844 -63.58980469 65.42304687 -64.05664062 64.43359375 C-64.97650627 62.47936716 -65.89318031 60.52363506 -66.80664062 58.56640625 C-69.52831442 52.81421625 -72.48049568 47.35855477 -75.88305664 41.97851562 C-77 40 -77 40 -77 38 C-76.22398437 37.61070312 -75.44796875 37.22140625 -74.6484375 36.8203125 C-68.39434331 33.58131861 -62.51946913 30.13482511 -56.8125 26 C-56.21832275 25.57041992 -55.62414551 25.14083984 -55.01196289 24.69824219 C-52.49626034 22.86471088 -50.01109558 21.00871287 -47.5625 19.0859375 C-39.55040539 12.99340722 -30.29699376 9.64547854 -21 6 C-20.22591797 5.69078613 -19.45183594 5.38157227 -18.65429688 5.06298828 C-16.48230884 4.19672299 -14.3054108 3.34481333 -12.125 2.5 C-11.47772949 2.24468506 -10.83045898 1.98937012 -10.16357422 1.72631836 C-6.65244793 0.40232147 -3.75518593 -0.28556547 0 0 Z " fill="#FDF1E5" transform="translate(629,823)"/>
<path d="M0 0 C4.68315196 3.83166978 9.02952389 7.91995804 13.3125 12.1875 C14.10382324 12.97205566 14.10382324 12.97205566 14.91113281 13.77246094 C20.96946379 19.8542284 20.96946379 19.8542284 21.08984375 24.37109375 C21.04355478 25.72672334 20.99251524 27.08219649 20.9375 28.4375 C20.77468238 36.78758293 21.51583255 44.58370232 25.6875 52 C29.80307347 55.55941489 34.64157733 57.97557816 40 59 C41.72269173 58.85493661 43.44404574 58.69346378 45.1640625 58.51953125 C50.05143147 58.47811287 52.25242811 59.45150249 55.8359375 62.76171875 C57.37806491 64.37633933 58.89084592 66.01943428 60.375 67.6875 C61.14199219 68.50412109 61.90898437 69.32074219 62.69921875 70.16210938 C64.17903343 71.74032279 65.64759152 73.32918604 67.10327148 74.9296875 C68.5673074 76.52770842 70.08402577 78.07756362 71.62109375 79.60546875 C74.80459769 82.8098824 77.73872373 86.20535458 80.6875 89.625 C81.26822266 90.29273438 81.84894531 90.96046875 82.44726562 91.6484375 C84.80560701 94.37484373 86.99599647 96.99399471 89 100 C71.06361898 100.35517586 71.06361898 100.35517586 62.8828125 98.56640625 C59.21448106 97.84566362 55.52606371 97.46124131 51.8125 97.0625 C38.34075406 95.53985434 25.57885744 93.30396518 13 88 C11.17674194 87.36940674 11.17674194 87.36940674 9.31665039 86.72607422 C5.04925944 84.9428741 1.58771673 82.92599891 -1 79 C-3.59996034 70.1254714 -2.6754449 60.38639285 -2.4375 51.25 C-2.4240482 48.7226819 -2.4168329 46.19532251 -2.41601562 43.66796875 C-2.37449622 32.3507543 -2.02675885 21.04055887 -1.53515625 9.734375 C-1.49772812 8.85372375 -1.46029999 7.97307251 -1.42173767 7.06573486 C-1.12317558 1.12317558 -1.12317558 1.12317558 0 0 Z " fill="#FDF1E4" transform="translate(240,165)"/>
<path d="M0 0 C1.3166727 2.24039631 2.46033255 4.40819044 3.5625 6.75 C3.86607422 7.37132812 4.16964844 7.99265625 4.48242188 8.6328125 C5.77843008 11.30953533 6.98385065 13.95396132 7.96875 16.76171875 C9.2101751 19.45617549 10.48990972 20.42621525 12.9375 22.0625 C18.14635573 25.5772606 20.21946284 28.97356655 22 35 C22.99 35 23.98 35 25 35 C26.58688018 37.06413738 27.919271 39.03053414 29.25 41.25 C29.62640625 41.83652344 30.0028125 42.42304687 30.390625 43.02734375 C33.06543269 47.40340781 33.06543269 47.40340781 32.734375 50.421875 C32.37085938 51.20304688 32.37085938 51.20304688 32 52 C31.34 52 30.68 52 30 52 C29.60167969 50.84371094 29.60167969 50.84371094 29.1953125 49.6640625 C28.84210938 48.66117188 28.48890625 47.65828125 28.125 46.625 C27.77695312 45.62726562 27.42890625 44.62953125 27.0703125 43.6015625 C26.15217498 40.89557882 26.15217498 40.89557882 24 39 C24.28875 39.58007812 24.5775 40.16015625 24.875 40.7578125 C25.24625 41.53898438 25.6175 42.32015625 26 43.125 C26.37125 43.89070312 26.7425 44.65640625 27.125 45.4453125 C28.22367562 48.65305293 28.61179037 50.63735364 28 54 C25.74346235 55.88706396 23.83843161 57.21189141 21.3125 58.625 C20.05704633 59.36456694 18.80311248 60.10672047 17.55078125 60.8515625 C16.94314941 61.20379883 16.33551758 61.55603516 15.70947266 61.91894531 C13.75155358 63.09828128 13.75155358 63.09828128 11.29296875 65.3359375 C9 67 9 67 7.0546875 67.01171875 C4.15830615 65.58555379 1.71425039 63.73990958 -0.875 61.8125 C-11.27883409 54.36624311 -23.19030436 50.43467745 -35.1875 46.296875 C-35.83323975 46.06959717 -36.47897949 45.84231934 -37.14428711 45.6081543 C-38.86204596 45.0452103 -40.62089322 44.61210995 -42.37890625 44.19140625 C-45 43 -45 43 -46.21484375 40.41796875 C-46.45332031 39.35191406 -46.69179688 38.28585937 -46.9375 37.1875 C-48.65745362 30.61508149 -51.25052251 25.41768463 -54.609375 19.58203125 C-56 17 -56 17 -56 15 C-55.42483643 14.83508057 -54.84967285 14.67016113 -54.25708008 14.50024414 C-51.4413054 13.69080219 -48.62675954 12.87719459 -45.8125 12.0625 C-44.75780518 11.75763672 -43.70311035 11.45277344 -42.61645508 11.13867188 C-36.40535767 9.32911467 -30.21976928 7.45558703 -24.0546875 5.49609375 C-23.06915138 5.18418846 -23.06915138 5.18418846 -22.06370544 4.86598206 C-18.82574149 3.84074051 -15.59111307 2.80652545 -12.3605957 1.75805664 C-11.18327881 1.38414795 -10.00596191 1.01023926 -8.79296875 0.625 C-7.7464917 0.28726563 -6.70001465 -0.05046875 -5.62182617 -0.3984375 C-3 -1 -3 -1 0 0 Z " fill="#FDF1E4" transform="translate(514,808)"/>
<path d="M0 0 C0.66 0.33 1.32 0.66 2 1 C-0.31 3.31 -2.62 5.62 -5 8 C-4.67 8.66 -4.34 9.32 -4 10 C-3.29875 9.236875 -2.5975 8.47375 -1.875 7.6875 C1.48259333 4.54888015 4.34180604 2.0342047 9.125 1.97265625 C11.3125 2.1875 11.3125 2.1875 15 3 C15.495 3.99 15.495 3.99 16 5 C15.01 5 14.02 5 13 5 C13 5.66 13 6.32 13 7 C13.556875 7.2475 14.11375 7.495 14.6875 7.75 C17.42410913 9.22924818 19.67650869 10.93467439 22 13 C22 13.66 22 14.32 22 15 C21.34257813 14.96519531 20.68515625 14.93039062 20.0078125 14.89453125 C13.29756079 14.70358913 6.91958851 15.29922878 0.3125 16.375 C-0.48978027 16.50108643 -1.29206055 16.62717285 -2.11865234 16.75708008 C-4.09322191 17.09779429 -6.0496821 17.54035751 -8 18 C-8.33 18.66 -8.66 19.32 -9 20 C-7.72125 19.71125 -6.4425 19.4225 -5.125 19.125 C-0.00274606 18.11818682 5.13642321 17.35190444 10.3125 16.6875 C11.08899902 16.57486816 11.86549805 16.46223633 12.66552734 16.34619141 C13.41141113 16.25644043 14.15729492 16.16668945 14.92578125 16.07421875 C15.59005127 15.98744873 16.25432129 15.90067871 16.9387207 15.8112793 C19.98266299 16.08996784 21.61885439 17.10681035 24 19 C24.99487305 21.60375977 24.99487305 21.60375977 25.51171875 24.69140625 C25.71216797 25.80064453 25.91261719 26.90988281 26.11914062 28.05273438 C26.30669922 29.21095703 26.49425781 30.36917969 26.6875 31.5625 C27.08066609 33.85660502 27.48009503 36.14964828 27.88671875 38.44140625 C28.05389404 39.45920166 28.22106934 40.47699707 28.39331055 41.52563477 C28.81201427 44.1575988 28.81201427 44.1575988 31 46 C31.90881016 48.7432802 32.11945003 51.23259605 32.09765625 54.109375 C32.09443359 54.86347656 32.09121094 55.61757813 32.08789062 56.39453125 C32.07532227 57.56048828 32.07532227 57.56048828 32.0625 58.75 C32.05798828 59.54277344 32.05347656 60.33554687 32.04882812 61.15234375 C32.03708565 63.10159508 32.01915146 65.05080738 32 67 C30.86908936 67.029729 30.86908936 67.029729 29.71533203 67.06005859 C15.04847956 67.46418408 0.54730797 68.05224328 -14 70 C-16.66621418 70.33702794 -19.33313792 70.66812383 -22 71 C-24.31938116 66.09202379 -25.0577384 60.92522152 -26 55.625 C-27.29818477 48.36117954 -27.29818477 48.36117954 -29.0859375 41.20703125 C-29.97161204 38.0996005 -30.38684241 35.27762751 -30.625 32.0625 C-30.69976563 31.10472656 -30.77453125 30.14695312 -30.8515625 29.16015625 C-30.90054688 28.44730469 -30.94953125 27.73445313 -31 27 C-21.69059906 21.3150101 -21.69059906 21.3150101 -17.4375 19.375 C-14.84986245 18.28646014 -14.84986245 18.28646014 -14.4375 16.125 C-14.293125 15.42375 -14.14875 14.7225 -14 14 C-12.38161281 12.28641357 -10.70328319 10.6292274 -9 9 C-7.15955273 6.91020181 -5.35147468 4.79597456 -3.55078125 2.671875 C-2 1 -2 1 0 0 Z " fill="#FCF1E4" transform="translate(590,303)"/>
<path d="M0 0 C16.15656626 13.3933938 25.48367948 32.01643707 35.49707031 50.12011719 C37.79355967 54.2451592 40.05926981 58.18347296 42.9453125 61.92578125 C45 65 45 65 44.7121582 67.08569336 C43.86404438 69.36545355 42.8041845 70.56367466 41.0625 72.25 C40.53785156 72.77078125 40.01320313 73.2915625 39.47265625 73.828125 C38 75 38 75 36 75 C35.75846191 75.56605957 35.51692383 76.13211914 35.26806641 76.71533203 C33.7470026 79.45582397 31.92434176 81.33485293 29.7109375 83.5546875 C28.85113281 84.41707031 27.99132812 85.27945313 27.10546875 86.16796875 C26.20441406 87.06128906 25.30335938 87.95460938 24.375 88.875 C23.05822266 90.20337891 23.05822266 90.20337891 21.71484375 91.55859375 C16.75964243 96.49906936 11.76270326 101.02074879 6 105 C4.20152917 100.81539026 2.41244705 96.62682903 0.625 92.4375 C0.11710937 91.25607422 -0.39078125 90.07464844 -0.9140625 88.85742188 C-1.40390625 87.70693359 -1.89375 86.55644531 -2.3984375 85.37109375 C-3.07398682 83.7921936 -3.07398682 83.7921936 -3.76318359 82.18139648 C-6.35003401 75.52737994 -7.3878221 69.7464051 -7.375 62.6875 C-7.37411377 61.78161133 -7.37322754 60.87572266 -7.37231445 59.94238281 C-7.21289387 50.38362163 -5.674503 41.11889022 -4.08984375 31.7109375 C-2.93005584 24.78893155 -2.06101907 17.84546122 -1.25 10.875 C-1.12262451 9.78348633 -0.99524902 8.69197266 -0.86401367 7.56738281 C-0.57236135 5.04531578 -0.28403465 2.52293449 0 0 Z " fill="#FDF1E4" transform="translate(274,441)"/>
<path d="M0 0 C18.06062449 1.76435941 41.46614412 16.11124477 52.9375 29.375 C58.59411694 36.70499001 61.91171711 43.79494055 63 53 C61.92363281 53.17015625 60.84726562 53.3403125 59.73828125 53.515625 C52.88724908 54.63879675 46.22306556 55.78072827 39.625 58 C31.29796658 60.75799833 22.65979529 61.79293244 14 63 C13.55914063 61.5459375 13.55914063 61.5459375 13.109375 60.0625 C9.62608973 49.3854442 4.40214946 41.45613539 -2.60498047 32.75537109 C-7.23527676 26.92900946 -11.72073226 20.69517164 -15 14 C-13.70200369 10.10601107 -11.27285585 8.72315405 -8.0625 6.4375 C-3.85618628 3.43224354 -3.85618628 3.43224354 0 0 Z " fill="#FDF1E4" transform="translate(929,526)"/>
<path d="M0 0 C1.32 0 2.64 0 4 0 C4.05994141 1.2684375 4.05994141 1.2684375 4.12109375 2.5625 C4.70939813 8.953955 5.34288271 13.22096532 10.25 17.625 C16.73563811 22.53053838 21.95389288 24.4814731 30 25 C28.44480091 28.31593111 27.24230967 30.14725162 24 32 C21.25 32.1875 21.25 32.1875 19 32 C19.28875 33.27875 19.5775 34.5575 19.875 35.875 C20.03742188 36.59429688 20.19984375 37.31359375 20.3671875 38.0546875 C20.90474428 40.20719964 20.90474428 40.20719964 23 42 C25.68839385 42.26991906 28.29141936 42.08737357 31 42 C29.61122646 45.35620271 28.08322035 47.07298728 25 49 C24.34 49 23.68 49 23 49 C23 55.27 23 61.54 23 68 C24.32 68 25.64 68 27 68 C27.33 68.99 27.66 69.98 28 71 C28.99 71.33 29.98 71.66 31 72 C31 72.66 31 73.32 31 74 C11.86 74 -7.28 74 -27 74 C-27 73.34 -27 72.68 -27 72 C-26.34 72 -25.68 72 -25 72 C-24.67 70.68 -24.34 69.36 -24 68 C-22.68 68 -21.36 68 -20 68 C-19.67 61.73 -19.34 55.46 -19 49 C-20.65 48.67 -22.3 48.34 -24 48 C-26.3125 46.0625 -26.3125 46.0625 -28 44 C-28 43.34 -28 42.68 -28 42 C-26.01432292 41.77213542 -24.02864583 41.54427083 -22.04296875 41.31640625 C-19.80603607 41.02829265 -19.80603607 41.02829265 -17 40 C-16.19787372 38.12612784 -16.19787372 38.12612784 -15.8125 35.9375 C-15.57466797 34.83728516 -15.57466797 34.83728516 -15.33203125 33.71484375 C-15.16767578 32.86599609 -15.16767578 32.86599609 -15 32 C-15.70125 31.9175 -16.4025 31.835 -17.125 31.75 C-20.73489415 30.80828848 -23.08785384 29.3164799 -26 27 C-26.671875 24.86328125 -26.671875 24.86328125 -27 23 C-26.27554687 23.03480469 -25.55109375 23.06960938 -24.8046875 23.10546875 C-17.12368027 23.32053695 -13.08867596 22.24080413 -6.8125 17.6875 C-1.33375287 12.45225274 -0.46760755 7.25597918 0 0 Z " fill="#E9D0B7" transform="translate(392,503)"/>
<path d="M0 0 C12.81851307 2.12894885 21.87590967 12.0782239 29.37109375 21.99609375 C31.7975738 24.99259615 31.7975738 24.99259615 34.47485352 26.79833984 C38.67900655 29.96220908 41.55562986 32.25451407 42.88500977 37.47631836 C43.17732691 41.60169913 43.18141745 45.62121658 43.0625 49.75 C43.05659901 51.21995904 43.05590377 52.68994781 43.06030273 54.15991211 C43.06543596 57.07770003 43.04896758 59.99403155 43.015625 62.91162109 C42.9701778 68.47289816 43.24672285 74.01152202 43.5625 79.5625 C43.64762117 81.23044403 43.73231575 82.89840994 43.81640625 84.56640625 C43.87699219 85.69949219 43.93757813 86.83257812 44 88 C40.9954741 87.30377238 38.84031143 86.44119506 36.25 84.75 C35.55648437 84.30398438 34.86296875 83.85796875 34.1484375 83.3984375 C33.43945312 82.93695313 32.73046875 82.47546875 32 82 C28.35003902 79.66238454 24.75487962 77.37743981 20.875 75.4375 C18 74 18 74 15.1875 71.9375 C11.72591432 69.8333989 8.89063262 69.11105049 4.953125 68.39453125 C3 68 3 68 1 67 C1.07001221 66.16992432 1.14002441 65.33984863 1.2121582 64.48461914 C1.92181535 55.45860852 2.19732328 46.49237906 2.1875 37.4375 C2.1882251 36.74865723 2.1889502 36.05981445 2.18969727 35.35009766 C2.18832499 23.47993713 1.48581379 11.78038076 0 0 Z " fill="#FDF1E4" transform="translate(189,207)"/>
<path d="M0 0 C15.84371983 7.74880958 15.84371983 7.74880958 20.125 10.625 C29.14963741 16.50890456 39.5320755 19.81438939 50 22 C49.49035282 26.50592825 47.86841543 28.78401844 44.9375 32.1875 C44.12152344 33.15300781 43.30554688 34.11851562 42.46484375 35.11328125 C41.65144531 36.06589844 40.83804688 37.01851562 40 38 C31.86002694 47.80812694 24.47631082 58.07033416 18.19140625 69.171875 C17 71 17 71 15 72 C12.75341797 71.19555664 12.75341797 71.19555664 9.9921875 69.91015625 C9.00605469 69.45576172 8.01992188 69.00136719 7.00390625 68.53320312 C5.97136719 68.04787109 4.93882812 67.56253906 3.875 67.0625 C2.83472656 66.58103516 1.79445313 66.09957031 0.72265625 65.60351562 C-1.85490582 64.40932402 -4.42883881 63.20789628 -7 62 C-7.14733887 56.30503248 -6.68010587 51.14013302 -5.5625 45.5625 C-5.42779297 44.84384766 -5.29308594 44.12519531 -5.15429688 43.38476562 C-4.13878623 38.13878623 -4.13878623 38.13878623 -3 37 C-2.93677519 35.18988299 -2.94076998 33.3773464 -2.97265625 31.56640625 C-2.98490234 30.44169922 -2.99714844 29.31699219 -3.00976562 28.15820312 C-3.04440729 25.79615498 -3.08333663 23.43416509 -3.12695312 21.07226562 C-3.19332226 14.18939547 -2.95808062 7.6438402 -1 1 C-0.67 0.67 -0.34 0.34 0 0 Z " fill="#FDF1E4" transform="translate(859,586)"/>
<path d="M0 0 C1.4859668 0.21462891 1.4859668 0.21462891 3.00195312 0.43359375 C5.39845915 0.78091346 7.79342133 1.13639144 10.1875 1.5 C9.375 3.4375 9.375 3.4375 8.1875 5.5 C7.1975 5.83 6.2075 6.16 5.1875 6.5 C4.45426204 8.51508358 4.45426204 8.51508358 4.1875 10.5 C3.5275 10.5 2.8675 10.5 2.1875 10.5 C2.6825 11.49 2.6825 11.49 3.1875 12.5 C4.5075 11.18 5.8275 9.86 7.1875 8.5 C6.47489906 12.78379643 5.11828264 16.75093853 3.625 20.8125 C3.27405273 21.78026367 3.27405273 21.78026367 2.91601562 22.76757812 C2.34302993 24.34621219 1.76570536 25.92327026 1.1875 27.5 C-0.7925 27.5 -2.7725 27.5 -4.8125 27.5 C-5.4725 29.15 -6.1325 30.8 -6.8125 32.5 C-7.8025 32.17 -8.7925 31.84 -9.8125 31.5 C-8.8225 29.52 -7.8325 27.54 -6.8125 25.5 C-15.70494349 26.35764683 -23.76771448 27.55773212 -32.21875 30.61328125 C-39.52627974 33.11148795 -47.17837355 32.6145119 -54.8125 32.5 C-54.77769531 31.83097656 -54.74289062 31.16195312 -54.70703125 30.47265625 C-54.47955136 22.40253628 -55.62301888 14.96917589 -57.15625 7.08984375 C-57.8125 3.5 -57.8125 3.5 -57.8125 0.5 C-53.35115427 0.20985627 -48.88949398 -0.074695 -44.42749023 -0.35449219 C-42.91567819 -0.45003242 -41.40395505 -0.5469921 -39.89233398 -0.64550781 C-26.43655541 -1.52082564 -13.39085004 -2.03753853 0 0 Z " fill="#FDF1E4" transform="translate(627.8125,380.5)"/>
<path d="M0 0 C0.99 0 1.98 0 3 0 C2.96777344 0.70125 2.93554688 1.4025 2.90234375 2.125 C2.95633182 6.54002421 3.15359643 9.80485553 5.75390625 13.4765625 C10.94090128 18.438036 14.86558887 20 22 20 C20.20953589 24.13718891 17.83902629 25.66320139 14 28 C15.12226308 31.70992273 15.12226308 31.70992273 17 35 C20.58863524 36.0615942 20.58863524 36.0615942 24 36 C22.63016497 39.16115776 22.0109362 39.9927092 19 42 C18.01 42 17.02 42 16 42 C16 47.28 16 52.56 16 58 C17.65 58.33 19.3 58.66 21 59 C21 59.99 21 60.98 21 62 C21.99 62 22.98 62 24 62 C24 62.66 24 63.32 24 64 C9.48 64 -5.04 64 -20 64 C-19.505 61.03 -19.505 61.03 -19 58 C-18.01 58 -17.02 58 -16 58 C-15.67 52.72 -15.34 47.44 -15 42 C-16.65 41.01 -18.3 40.02 -20 39 C-20.495 37.515 -20.495 37.515 -21 36 C-19.3603125 35.7525 -19.3603125 35.7525 -17.6875 35.5 C-13.99455496 34.43130321 -13.99455496 34.43130321 -12.8671875 32.0859375 C-12.13382276 30.07096447 -11.50850828 28.0824625 -11 26 C-11.928125 25.896875 -12.85625 25.79375 -13.8125 25.6875 C-17.02464205 24.99468505 -18.11930017 24.6120831 -20 22 C-20 21.34 -20 20.68 -20 20 C-19.030625 20.144375 -18.06125 20.28875 -17.0625 20.4375 C-12.24992528 20.49630947 -9.5027713 17.64662901 -6.015625 14.62890625 C-4 13 -4 13 -1 12 C-0.67 8.04 -0.34 4.08 0 0 Z " fill="#E9D0B7" transform="translate(452,450)"/>
<path d="M0 0 C5.06787496 1.68929165 8.92602657 4.5315841 11.75390625 9.12109375 C13.08013628 12.51034828 12.68289688 15.57559366 12.5625 19.1875 C13.490625 19.5278125 13.490625 19.5278125 14.4375 19.875 C17.37536867 21.68956594 17.7222459 22.8264836 18.5625 26.1875 C19.12834233 31.32294781 19.15807109 35.0374317 16.75 39.6875 C12.92661059 44.0570879 12.92661059 44.0570879 9.51953125 44.3828125 C8.45798828 44.34800781 8.45798828 44.34800781 7.375 44.3125 C6.116875 44.27125 4.85875 44.23 3.5625 44.1875 C3.5625 49.1375 3.5625 54.0875 3.5625 59.1875 C4.5525 59.1875 5.5425 59.1875 6.5625 59.1875 C6.5625 59.8475 6.5625 60.5075 6.5625 61.1875 C1.2825 61.1875 -3.9975 61.1875 -9.4375 61.1875 C-9.1075 60.1975 -8.7775 59.2075 -8.4375 58.1875 C-6.7875 58.1875 -5.1375 58.1875 -3.4375 58.1875 C-3.4375 53.5675 -3.4375 48.9475 -3.4375 44.1875 C-5.7475 44.1875 -8.0575 44.1875 -10.4375 44.1875 C-12.58203125 42.98046875 -12.58203125 42.98046875 -14.25 41.375 C-14.81332031 40.85292969 -15.37664063 40.33085938 -15.95703125 39.79296875 C-19.69867459 35.7354083 -19.85703058 32.88414119 -19.765625 27.60546875 C-19.31116641 24.25654174 -17.62927907 22.70159952 -15.4375 20.1875 C-14.82689782 18.07179733 -14.82689782 18.07179733 -14.4375 15.75 C-13.34790161 10.08596698 -10.73060828 6.24612539 -6.625 2.25 C-3.4375 0.1875 -3.4375 0.1875 0 0 Z " fill="#EAD1B8" transform="translate(760.4375,493.8125)"/>
<path d="M0 0 C0.66 0 1.32 0 2 0 C2.433125 0.7425 2.86625 1.485 3.3125 2.25 C4.85109542 5.13203205 4.85109542 5.13203205 7.5625 6.9375 C10.52475984 9.44402756 11.07057041 11.28228165 12 15 C12.3403125 16.11375 12.3403125 16.11375 12.6875 17.25 C13 19 13 19 12 21 C12.66 21 13.32 21 14 21 C13.6875 22.875 13.6875 22.875 13 25 C12.01 25.66 11.02 26.32 10 27 C9.41518879 29.88595946 9.41518879 29.88595946 9.3125 33.125 C9.24675781 34.22070312 9.18101562 35.31640625 9.11328125 36.4453125 C9.07589844 37.28835938 9.03851563 38.13140625 9 39 C10.32 39 11.64 39 13 39 C13 39.66 13 40.32 13 41 C4.42 41 -4.16 41 -13 41 C-13 40.34 -13 39.68 -13 39 C-12.51144531 38.55785156 -12.02289063 38.11570312 -11.51953125 37.66015625 C-9.54323007 35.50095831 -9.62574344 34.32105609 -9.6875 31.4375 C-9.69136719 30.65246094 -9.69523437 29.86742187 -9.69921875 29.05859375 C-9.82296977 26.77873166 -9.82296977 26.77873166 -12 25 C-12.1953125 22.8359375 -12.1953125 22.8359375 -12.125 20.375 C-12.10695313 19.55773437 -12.08890625 18.74046875 -12.0703125 17.8984375 C-12.04710937 17.27195312 -12.02390625 16.64546875 -12 16 C-11.34 16 -10.68 16 -10 16 C-9.979375 14.96875 -9.95875 13.9375 -9.9375 12.875 C-8.82119157 8.26092516 -7.36865772 7.09236357 -3.69140625 4.359375 C-1.73221522 2.92447082 -1.73221522 2.92447082 0 0 Z " fill="#E8CEB4" transform="translate(340,536)"/>
<path d="M0 0 C0.99 0.33 1.98 0.66 3 1 C3.90380859 3.20214844 3.90380859 3.20214844 4.6484375 6.109375 C4.92864746 7.16769531 5.20885742 8.22601562 5.49755859 9.31640625 C5.78711426 10.44949219 6.07666992 11.58257813 6.375 12.75 C15.06928599 45.0780493 31.88858449 77.64274987 61.6875 95.125 C72.30797285 101.1089339 83.66396181 104.934953 95.2109375 108.67358398 C105.1603968 111.95403716 114.66393026 116.2603695 124 121 C120.07344794 122.51839575 117.28178154 121.43537717 113.375 120.1875 C112.22773438 119.83042969 111.08046875 119.47335937 109.8984375 119.10546875 C107 118 107 118 105 116 C103.14619729 115.17817212 103.14619729 115.17817212 100.9921875 114.484375 C100.17814453 114.20585693 99.36410156 113.92733887 98.52539062 113.64038086 C97.65076172 113.34655518 96.77613281 113.05272949 95.875 112.75 C94.04906603 112.12229424 92.22354988 111.49337187 90.3984375 110.86328125 C89.48674805 110.54955566 88.57505859 110.23583008 87.63574219 109.91259766 C52.89445969 97.88379866 30.62327216 78.29669043 14.06640625 45.359375 C7.23881443 31.25177977 1.28373463 15.72574923 0 0 Z " fill="#F9E7D5" transform="translate(299,674)"/>
<path d="M0 0 C1.051875 0.43441406 2.10375 0.86882812 3.1875 1.31640625 C7.13353526 2.98266948 10.68272498 5.11521973 14.3125 7.375 C20.06923166 10.90012922 25.88066188 14.13470992 32 17 C32 17.66 32 18.32 32 19 C32.60585938 19.17015625 33.21171875 19.3403125 33.8359375 19.515625 C38.16495872 20.76771114 42.35612972 22.09905559 46.5 23.875 C59.7983703 29.29824164 73.85069699 31.94283183 88 34 C87.67 34.66 87.34 35.32 87 36 C61.43564114 38.38177256 36.3303552 24.51707612 14.96484375 12.07421875 C-10.89619597 -2.97168982 -32.83185667 -11.93975168 -63 -5 C-64.66546185 -4.66069819 -66.33165678 -4.32483809 -68 -4 C-68 -4.66 -68 -5.32 -68 -6 C-65.03 -6.99 -62.06 -7.98 -59 -9 C-59 -9.66 -59 -10.32 -59 -11 C-39.02936375 -13.57685629 -17.35959183 -10.79109762 0 0 Z " fill="#FAE9D8" transform="translate(488,235)"/>
<path d="M0 0 C3.61671586 1.20557195 4.3896963 2.44988911 6.6875 5.4375 C7.38746094 6.33726562 8.08742188 7.23703125 8.80859375 8.1640625 C9.53175781 9.09992188 10.25492187 10.03578125 11 11 C12.41323579 12.77357259 13.82977511 14.54451911 15.25 16.3125 C16.5 17.875 17.75 19.4375 19 21 C19.73734375 21.88042969 20.4746875 22.76085937 21.234375 23.66796875 C23 26 23 26 23 28 C9.85714286 28.46753247 9.85714286 28.46753247 4.25 23.625 C0.54142536 19.29832959 -0.2892241 16.19338668 -0.6875 10.5 C-0.77386719 9.3759375 -0.86023438 8.251875 -0.94921875 7.09375 C-0.99280247 4.43849575 -0.81502696 2.50023307 0 0 Z " fill="#FDF1E5" transform="translate(264,193)"/>
<path d="M0 0 C4.497618 0.46106235 8.14603165 1.75827563 12.24609375 3.6171875 C13.41333984 4.14183594 14.58058594 4.66648437 15.78320312 5.20703125 C17.00140549 5.76279422 18.21950373 6.31878549 19.4375 6.875 C21.83190349 7.95601219 24.2264311 9.03674952 26.62109375 10.1171875 C27.73210449 10.62088867 28.84311523 11.12458984 29.98779297 11.64355469 C33.30830765 13.1388359 36.64403709 14.58644272 40 16 C40 16.66 40 17.32 40 18 C34.15350313 20.92324844 26.13924217 18.7112943 20.1328125 17.13671875 C15.58215536 15.48554515 11.70198796 13.01275929 7.69140625 10.328125 C4.53116034 8.76864226 3.28520973 8.89553841 0 10 C-0.99 10.495 -0.99 10.495 -2 11 C-1.85957123 9.35369672 -1.71250671 7.70795821 -1.5625 6.0625 C-1.48128906 5.14597656 -1.40007813 4.22945312 -1.31640625 3.28515625 C-1 1 -1 1 0 0 Z " fill="#FDF1E4" transform="translate(844,749)"/>
<path d="M0 0 C1.9609375 1.09765625 1.9609375 1.09765625 3.9375 2.4375 C8.1831704 5.31200058 11.82346071 6.75022309 17 6 C19.93385216 4.63445527 22.64696912 3.04933694 25.421875 1.38671875 C28.86021042 -0.46268894 31.17724879 -0.76455024 35 0 C37.625 1.8125 37.625 1.8125 40 4 C40.928125 4.515625 41.85625 5.03125 42.8125 5.5625 C43.534375 6.036875 44.25625 6.51125 45 7 C45 7.99 45 8.98 45 10 C39.48338369 9.49848943 39.48338369 9.49848943 37 6.9375 C35.12491845 4.72510766 35.12491845 4.72510766 32.20703125 4.69140625 C28.55867193 5.0424664 26.75226482 6.03855052 23.6875 8 C19.38923178 10.4428588 16.16463452 11.92933365 11.1875 11.609375 C7.65992445 10.62669324 5.04883346 8.49570705 2.12890625 6.34765625 C-1.06024488 4.32883581 -3.33530379 4.3776931 -7 5 C-10.25058324 6.41623241 -10.25058324 6.41623241 -13 8 C-13.66 8 -14.32 8 -15 8 C-15 8.66 -15 9.32 -15 10 C-16.32 9.67 -17.64 9.34 -19 9 C-17.19260739 4.54810663 -14.58833717 3.13271131 -10.43359375 0.9921875 C-6.48028592 -0.61959451 -4.27235268 -0.67815122 0 0 Z " fill="#EED8C1" transform="translate(887,787)"/>
<path d="M0 0 C2.16816145 1.14622548 4.31223739 2.33856545 6.4375 3.5625 C11.30609464 6.34294596 14.45862754 7.91199581 20.01171875 6.734375 C22.06049325 5.97765672 23.81731879 5.06205341 25.6875 3.9375 C29.21480562 1.87435898 31.0007287 1.60982719 35 2 C35 3.32 35 4.64 35 6 C34.26265625 5.938125 33.5253125 5.87625 32.765625 5.8125 C29.44189043 6.03783794 28.31968506 6.94425195 25.75 9 C21.8716924 11.68153611 19.12485707 12.96493031 14.3828125 12.67578125 C10.31833939 11.52307002 7.15372474 8.94766924 3.69921875 6.58203125 C0.33950911 4.61288161 -2.0132293 4.05847914 -5.8671875 4.35546875 C-9.23407807 5.37293568 -11.5948088 7.35001552 -14.17578125 9.6875 C-16 11 -16 11 -20 11 C-19.6870989 7.99082343 -19.10886724 7.09413476 -16.77734375 5.078125 C-5.92748408 -1.90637889 -5.92748408 -1.90637889 0 0 Z " fill="#EDD6BF" transform="translate(884,797)"/>
<path d="M0 0 C2.17617764 1.54242378 4.04609547 3.02968609 6 4.8125 C12.33245881 10.6535579 12.33245881 10.6535579 20.25 13.5 C24.58116753 12.922511 27.16983591 11.44559399 30.7890625 9.09375 C33.3694202 7.81724796 35.15767594 7.80053866 38 8 C38 8.66 38 9.32 38 10 C23.23242837 18.23454919 23.23242837 18.23454919 17.078125 17.6875 C12.66179721 16.22645923 9.41764684 13.04735118 6 10 C4.59949211 8.81398431 3.18359564 7.64580064 1.75 6.5 C1.14671875 5.9946875 0.5434375 5.489375 -0.078125 4.96875 C-2.779551 3.60705559 -4.1576782 4.0859302 -7 5 C-9.3491538 6.24390268 -11.56536152 7.62679527 -13.81640625 9.0390625 C-16.3769587 10.1658888 -17.4291235 9.96772222 -20 9 C-16.99242932 6.64347991 -13.89317216 4.68340461 -10.5625 2.8125 C-9.63566406 2.28269531 -8.70882812 1.75289063 -7.75390625 1.20703125 C-4.72676477 -0.11975842 -3.24651921 -0.61217209 0 0 Z " fill="#FEFDFC" transform="translate(199,432)"/>
<path d="M0 0 C-0.33 0.99 -0.66 1.98 -1 3 C-3.6953125 4.0703125 -3.6953125 4.0703125 -7.125 5.125 C-13.28404835 7.32224557 -16.21770403 9.75557612 -19.73046875 15.20703125 C-20.35888672 16.09455078 -20.35888672 16.09455078 -21 17 C-21.66 17 -22.32 17 -23 17 C-23 17.66 -23 18.32 -23 19 C-22.195625 19.103125 -21.39125 19.20625 -20.5625 19.3125 C-16.21752614 20.15100373 -12.16542473 21.52821659 -8 23 C-8.33 23.66 -8.66 24.32 -9 25 C-9.80824219 24.79503906 -10.61648438 24.59007812 -11.44921875 24.37890625 C-12.51785156 24.10949219 -13.58648437 23.84007812 -14.6875 23.5625 C-16.27111328 23.16224609 -16.27111328 23.16224609 -17.88671875 22.75390625 C-20.5828317 22.10102068 -23.2757576 21.52058807 -26 21 C-26.60134766 22.06927734 -26.60134766 22.06927734 -27.21484375 23.16015625 C-31.18737604 29.85310749 -35.24668573 34.97001817 -42 39 C-42.66 39 -43.32 39 -44 39 C-42.78419898 35.35259694 -42.01143394 35.27110982 -38.75 33.5 C-33.05632303 29.92215514 -31.1860002 25.17352821 -29 19 C-30.258125 18.608125 -31.51625 18.21625 -32.8125 17.8125 C-38.40212552 15.96115906 -43.68268207 13.51454474 -49 11 C-49 10.34 -49 9.68 -49 9 C-42.93769124 10.88826011 -37.29776688 13.15458616 -31.578125 15.9140625 C-29.0421255 16.98225623 -26.70930215 17.5614439 -24 18 C-23.7525 17.46375 -23.505 16.9275 -23.25 16.375 C-19.72368767 9.67500657 -16.62538826 6.72848798 -9.875 3.625 C-9.14667969 3.27050781 -8.41835938 2.91601562 -7.66796875 2.55078125 C-2.339889 0 -2.339889 0 0 0 Z " fill="#FDF9F2" transform="translate(318,302)"/>
<path d="M0 0 C6.59904729 1.52785824 12.87389209 3.07617577 19 6 C17.68895551 9.93313346 15.17504178 11.36757006 11.9375 13.6875 C11.36966797 14.10322266 10.80183594 14.51894531 10.21679688 14.94726562 C8.81596827 15.97140082 7.40859652 16.98657535 6 18 C3.65945446 15.65945446 3.00678935 13.78524936 1.875 10.6875 C1.52179687 9.74261719 1.16859375 8.79773438 0.8046875 7.82421875 C0.01600322 5.05616665 -0.15620348 2.85852371 0 0 Z " fill="#FDF1E4" transform="translate(908,519)"/>
<path d="M0 0 C3.74123976 4.2954975 6.34151874 8.99900452 9 14 C3.33251843 16.83374078 -1.69732561 17.63223832 -8 18 C-7.23517162 15.93526568 -6.46287235 13.8732979 -5.6875 11.8125 C-5.25824219 10.66394531 -4.82898438 9.51539063 -4.38671875 8.33203125 C-3.14209582 5.34143023 -1.74669146 2.71992131 0 0 Z " fill="#FDF1E5" transform="translate(528,647)"/>
<path d="M0 0 C5.76812119 4.89036362 11.4055915 9.9120491 17 15 C17.51401367 15.46744629 18.02802734 15.93489258 18.55761719 16.41650391 C25.89382552 23.1012428 33.05124131 29.91007014 40 37 C39.505 37.99 39.505 37.99 39 39 C38.154375 38.21496094 37.30875 37.42992187 36.4375 36.62109375 C31.0473456 31.62590413 25.65395142 26.65002581 20.09375 21.84375 C17.33702974 19.41619037 14.63856684 16.92651504 11.9375 14.4375 C7.69902692 10.53271795 3.41102277 6.70926914 -1 3 C-0.67 2.01 -0.34 1.02 0 0 Z " fill="#FAE8D7" transform="translate(1118,885)"/>
<path d="M0 0 C4.72789628 1.49021871 8.03609364 4.27219972 11.6875 7.5 C12.32381348 8.0573584 12.96012695 8.6147168 13.61572266 9.18896484 C19.20691548 14.15846547 24.56645816 19.35626028 29.875 24.625 C31.06162231 25.79772461 31.06162231 25.79772461 32.2722168 26.99414062 C33.37110229 28.09918945 33.37110229 28.09918945 34.4921875 29.2265625 C35.14558105 29.88221191 35.79897461 30.53786133 36.47216797 31.21337891 C38 33 38 33 39 36 C35.34273939 34.47544717 33.15002074 32.29302019 30.4375 29.4375 C26.09610227 24.99395173 21.5267025 21.10413396 16.67578125 17.234375 C13.21100435 14.34115984 10.09015588 11.18211306 6.94921875 7.9453125 C4.89736771 5.82500463 4.89736771 5.82500463 1.9375 3.5625 C1.298125 3.046875 0.65875 2.53125 0 2 C0 1.34 0 0.68 0 0 Z " fill="#FAE8D7" transform="translate(1125,879)"/>
<path d="M0 0 C4.19272849 4.1241202 8.1495135 8.42097657 12.0703125 12.80273438 C14.27825816 15.24067437 16.24648589 17.16432393 19 19 C19 19.66 19 20.32 19 21 C19.71671875 21.2578125 20.4334375 21.515625 21.171875 21.78125 C24.16338801 23.0704103 26.59227605 24.62208727 29.25 26.5 C30.55710937 27.41265625 30.55710937 27.41265625 31.890625 28.34375 C34 30 34 30 35 32 C21.06618225 29.99873354 8.30740753 15.48360768 0 5 C-0.33 4.01 -0.66 3.02 -1 2 C-0.67 1.34 -0.34 0.68 0 0 Z " fill="#FAE7D5" transform="translate(338,733)"/>
<path d="M0 0 C1.49821059 3.37097383 2 5.20442119 2 9 C-0.9164905 9.81313676 -3.83318369 10.6255335 -6.75 11.4375 C-7.575 11.66759766 -8.4 11.89769531 -9.25 12.13476562 C-10.04921875 12.35712891 -10.8484375 12.57949219 -11.671875 12.80859375 C-12.4050293 13.01282959 -13.13818359 13.21706543 -13.89355469 13.42749023 C-15.92294147 13.9790563 -17.95795396 14.49755982 -20 15 C-5.48387097 0 -5.48387097 0 0 0 Z " fill="#FDF1E4" transform="translate(625,810)"/>
<path d="M0 0 C0.66 0 1.32 0 2 0 C2.32871094 1.02996094 2.65742188 2.05992187 2.99609375 3.12109375 C5.94226447 12.03774809 9.39984867 20.23289738 14.10327148 28.37670898 C16.18937476 32.06551198 17.56024415 34.61990939 17 39 C13.42513824 34.87140111 10.94624062 30.49768226 8.4375 25.6875 C8.05142578 24.96626953 7.66535156 24.24503906 7.26757812 23.50195312 C4.01796843 17.32935549 0.86379275 11.0565472 0.3125 4 C0.24675781 3.236875 0.18101562 2.47375 0.11328125 1.6875 C0.07589844 1.130625 0.03851563 0.57375 0 0 Z " fill="#FAE7D5" transform="translate(316,690)"/>
<path d="M0 0 C3.22765507 2.63482046 4.15830637 5.64370706 5.5625 9.5 C10.62036394 22.76434281 17.27531477 35.76191208 26 47 C25.67 47.66 25.34 48.32 25 49 C15.0941322 37.01246433 0 16.13488919 0 0 Z " fill="#FDF9F4" transform="translate(589,510)"/>
<path d="M0 0 C0.66 0 1.32 0 2 0 C6.78542955 6.59613262 10.15920338 14.22551293 13.5 21.625 C13.8623877 22.41890137 14.22477539 23.21280273 14.59814453 24.03076172 C15.46335188 25.99328452 16.2399813 27.99439509 17 30 C16.67 30.66 16.34 31.32 16 32 C12.0628896 27.84416124 10.14054916 24.14467952 8.1796875 18.796875 C6.36211753 14.48766938 3.87341921 10.61775581 1.390625 6.6640625 C0 4 0 4 0 0 Z " fill="#FAE8D6" transform="translate(442,815)"/>
<path d="M0 0 C4.58081308 1.55296504 8.12563381 4.0019288 12 6.8125 C12.90492188 7.45155273 12.90492188 7.45155273 13.828125 8.10351562 C17.57727222 10.7971964 20.82375563 13.64930281 24 17 C23.01 17.33 22.02 17.66 21 18 C18.80078125 16.77734375 18.80078125 16.77734375 16.3125 14.9375 C15.43464844 14.29296875 14.55679688 13.6484375 13.65234375 12.984375 C12.77707031 12.32953125 11.90179688 11.6746875 11 11 C10.19691406 10.42765625 9.39382812 9.8553125 8.56640625 9.265625 C4.41147699 6.27348343 4.41147699 6.27348343 3 5 C3 4.34 3 3.68 3 3 C1.68 2.34 0.36 1.68 -1 1 C-0.67 0.67 -0.34 0.34 0 0 Z " fill="#F9E8D6" transform="translate(208,139)"/>
<path d="M0 0 C0.99 0.33 1.98 0.66 3 1 C3.6875 3.0625 3.6875 3.0625 4 5 C-6.53586493 7.31937073 -17.27359414 8.07090594 -28 9 C-27.67 8.34 -27.34 7.68 -27 7 C-21.06205701 5.17813113 -15.16725869 4.45288445 -9 3.875 C-8.12988281 3.78863281 -7.25976562 3.70226562 -6.36328125 3.61328125 C-4.24270501 3.40355393 -2.12141921 3.20102158 0 3 C0 2.01 0 1.02 0 0 Z " fill="#FDF8F2" transform="translate(727,779)"/>
<path d="M0 0 C1.65 0 3.3 0 5 0 C6.36402043 2.2863012 7.71634274 4.57821749 9.0625 6.875 C9.45244141 7.52597656 9.84238281 8.17695313 10.24414062 8.84765625 C11.22444533 10.53065725 12.11898432 12.26296199 13 14 C12.67 14.66 12.34 15.32 12 16 C7.49486569 11.76790414 3.485708 7.11304141 0 2 C0 1.34 0 0.68 0 0 Z " fill="#FDF0E1" transform="translate(660,454)"/>
<path d="M0 0 C0 0.33 0 0.66 0 1 C-2.31 1 -4.62 1 -7 1 C-7 1.66 -7 2.32 -7 3 C-5.35 3 -3.7 3 -2 3 C-2 3.33 -2 3.66 -2 4 C-3.03060547 4.30744141 -3.03060547 4.30744141 -4.08203125 4.62109375 C-4.98308594 4.89050781 -5.88414062 5.15992188 -6.8125 5.4375 C-8.15248047 5.83775391 -8.15248047 5.83775391 -9.51953125 6.24609375 C-11.35473055 6.80387873 -13.18033726 7.39344575 -15 8 C-15 8.66 -15 9.32 -15 10 C-16.32 9.67 -17.64 9.34 -19 9 C-17.19450531 4.5527815 -14.58533293 3.15644873 -10.46484375 0.97265625 C-6.77736772 -0.48246504 -3.92111777 -0.35646525 0 0 Z " fill="#EED9C2" transform="translate(887,787)"/>
<path d="M0 0 C-7.02852331 7.98385657 -20.09751022 8.05572243 -30 9 C-28.10979164 6.48199681 -27.0789832 6.01515434 -23.92578125 5.41015625 C-22.73339844 5.29542969 -21.54101562 5.18070313 -20.3125 5.0625 C-15.9200162 4.53268494 -12.33404109 4.00242186 -8.4375 1.875 C-5.14874108 0.0811315 -3.6427963 -0.45534954 0 0 Z " fill="#FDF9F3" transform="translate(616,874)"/>
<path d="M0 0 C0 0.99 0 1.98 0 3 C-3.36825673 6.03830505 -7.23754742 8.47288424 -11 11 C-11.60408691 11.40686035 -12.20817383 11.8137207 -12.83056641 12.23291016 C-14.69263042 13.47864697 -16.56262292 14.71114354 -18.4375 15.9375 C-19.32332764 16.52168701 -19.32332764 16.52168701 -20.22705078 17.11767578 C-23.09028521 18.95850203 -25.60509724 20.47449908 -29 21 C-25.44288781 17.01229002 -21.23658853 14.43399456 -16.75 11.625 C-10.9639905 7.98690522 -5.40967933 4.18087268 0 0 Z " fill="#FDF8F2" transform="translate(699,645)"/>
<path d="M0 0 C0 0.99 0 1.98 0 3 C-6.27 5.97 -12.54 8.94 -19 12 C-18 8 -18 8 -16.44946289 6.81152344 C-15.7971167 6.49731445 -15.14477051 6.18310547 -14.47265625 5.859375 C-13.40821289 5.33730469 -13.40821289 5.33730469 -12.32226562 4.8046875 C-11.57654297 4.45664063 -10.83082031 4.10859375 -10.0625 3.75 C-9.32064453 3.38648438 -8.57878906 3.02296875 -7.81445312 2.6484375 C-2.32342575 0 -2.32342575 0 0 0 Z " fill="#F9E7D5" transform="translate(418,230)"/>
<path d="M0 0 C3 1 3 1 4.3515625 3.66015625 C6.65814839 9.82284432 8.61243802 15.4114464 9 22 C8.34 22 7.68 22 7 22 C6.61908203 20.67935547 6.61908203 20.67935547 6.23046875 19.33203125 C5.88628906 18.17058594 5.54210937 17.00914062 5.1875 15.8125 C4.85105469 14.66394531 4.51460938 13.51539063 4.16796875 12.33203125 C3.13413236 9.0086554 3.13413236 9.0086554 1.36328125 6.32421875 C0 4 0 4 0 0 Z " fill="#FAE7D4" transform="translate(462,829)"/>
<path d="M0 0 C0.66 0.33 1.32 0.66 2 1 C1.67 1.66 1.34 2.32 1 3 C15.19 3 29.38 3 44 3 C44 3.33 44 3.66 44 4 C29.15 4 14.3 4 -1 4 C-1.33 3.01 -1.66 2.02 -2 1 C-1.34 0.67 -0.68 0.34 0 0 Z " fill="#F8EBDC" transform="translate(431,511)"/>
<path d="M0 0 C0 2.31 0 4.62 0 7 C-3.46941546 6.54177532 -6.67395049 6.10868317 -10 5 C-10 4.34 -10 3.68 -10 3 C-3.375 0 -3.375 0 0 0 Z " fill="#FCF2E7" transform="translate(613,767)"/>
<path d="M0 0 C0.66 0.33 1.32 0.66 2 1 C1.57589844 1.4125 1.15179687 1.825 0.71484375 2.25 C-3.22744412 6.13163729 -6.89733397 10.13275467 -10.421875 14.3984375 C-12 16 -12 16 -15 17 C-13.61077846 12.55763055 -11.57384479 10.37588498 -8.0625 7.375 C-3.91716017 3.80934787 -3.91716017 3.80934787 0 0 Z " fill="#FBEBD9" transform="translate(590,303)"/>
<path d="M0 0 C4.05819183 0.65503282 7.53971282 1.94559121 11.3125 3.5625 C12.38113281 4.01753906 13.44976563 4.47257812 14.55078125 4.94140625 C15.76314453 5.46541016 15.76314453 5.46541016 17 6 C17 6.66 17 7.32 17 8 C12.51006131 7.41347648 8.77456816 6.2356462 4.625 4.4375 C3.56539062 3.98246094 2.50578125 3.52742188 1.4140625 3.05859375 C0.61742187 2.70925781 -0.17921875 2.35992187 -1 2 C-0.67 1.34 -0.34 0.68 0 0 Z " fill="#FAE8D3" transform="translate(520,267)"/>
<path d="M0 0 C0.99 0.33 1.98 0.66 3 1 C3 5.62 3 10.24 3 15 C-1 13 -1 13 -2 10 C-1.34 10 -0.68 10 0 10 C0 6.7 0 3.4 0 0 Z " fill="#F3E2D2" transform="translate(758,519)"/>
<path d="M0 0 C0.33 0 0.66 0 1 0 C1 2.97 1 5.94 1 9 C3.97 9 6.94 9 10 9 C10 9.66 10 10.32 10 11 C4.72 11 -0.56 11 -6 11 C-5.67 10.01 -5.34 9.02 -5 8 C-3.35 8 -1.7 8 0 8 C0 5.36 0 2.72 0 0 Z " fill="#F0DDCA" transform="translate(757,544)"/>
<path d="M0 0 C3.85940746 3.85940746 3.94344336 10.35985738 4.125 15.625 C4.08375 16.40875 4.0425 17.1925 4 18 C3.34 18 2.68 18 2 18 C0.59545452 11.88019467 -0.23268915 6.28260706 0 0 Z " fill="#FDF0E2" transform="translate(616,315)"/>
<path d="M0 0 C0 0.66 0 1.32 0 2 C-7.59 2 -15.18 2 -23 2 C-23 1.67 -23 1.34 -23 1 C-20.10508022 0.63625619 -17.20952377 0.28371333 -14.3125 -0.0625 C-13.08756836 -0.2181543 -13.08756836 -0.2181543 -11.83789062 -0.37695312 C-7.6579194 -0.86771898 -4.11245789 -1.19772195 0 0 Z " fill="#EBD6BF" transform="translate(423,575)"/>
<path d="M0 0 C1.32 0.66 2.64 1.32 4 2 C0.27074217 5.2428329 -4.30238735 7.5119901 -9 9 C-9.99 8.67 -10.98 8.34 -12 8 C-11.30132812 7.59007812 -10.60265625 7.18015625 -9.8828125 6.7578125 C-8.97273438 6.21898437 -8.06265625 5.68015625 -7.125 5.125 C-6.22007812 4.59132813 -5.31515625 4.05765625 -4.3828125 3.5078125 C-1.93396718 2.08024648 -1.93396718 2.08024648 0 0 Z " fill="#FDF7F0" transform="translate(342,288)"/>
<path d="M0 0 C1.65 1.32 3.3 2.64 5 4 C4.34 5.32 3.68 6.64 3 8 C-0.73639216 6.75453595 -1.18756513 5.36595047 -3 2 C-2.01 1.34 -1.02 0.68 0 0 Z " fill="#FBEAD8" transform="translate(781,328)"/>
<path d="M0 0 C6.35051546 -0.36637589 6.35051546 -0.36637589 9.4375 1.375 C11 3 11 3 11 5 C9.54096742 4.69078116 8.08279278 4.37751201 6.625 4.0625 C5.81289063 3.88847656 5.00078125 3.71445312 4.1640625 3.53515625 C2 3 2 3 0 2 C0 1.34 0 0.68 0 0 Z " fill="#FEF1E5" transform="translate(627,414)"/>
<path d="M0 0 C0 0.99 0 1.98 0 3 C-3.20380017 5.13586678 -4.01939967 5.23132175 -7.6875 5.125 C-8.89986328 5.09792969 -8.89986328 5.09792969 -10.13671875 5.0703125 C-11.05904297 5.03550781 -11.05904297 5.03550781 -12 5 C-12 4.67 -12 4.34 -12 4 C-9.36 4 -6.72 4 -4 4 C-4 3.34 -4 2.68 -4 2 C-5.98 2 -7.96 2 -10 2 C-10 1.67 -10 1.34 -10 1 C-8.71073008 0.63720544 -7.41846728 0.28503302 -6.125 -0.0625 C-5.40570312 -0.25972656 -4.68640625 -0.45695313 -3.9453125 -0.66015625 C-2 -1 -2 -1 0 0 Z " fill="#F2DDC8" transform="translate(908,804)"/>
<path d="M0 0 C2.00841268 0.01421885 4.01537247 0.13420475 6.01953125 0.265625 C6.01953125 0.925625 6.01953125 1.585625 6.01953125 2.265625 C4.56447767 2.79555192 3.10534998 3.3143039 1.64453125 3.828125 C0.42636719 4.26318359 0.42636719 4.26318359 -0.81640625 4.70703125 C-2.98046875 5.265625 -2.98046875 5.265625 -4.98046875 4.265625 C-3.72152968 1.74774686 -2.88459378 0.38688832 0 0 Z " fill="#EBD2BA" transform="translate(914.98046875,787.734375)"/>
<path d="M0 0 C0.66 0 1.32 0 2 0 C0.29383536 3.95830195 -2.00748906 5.8363474 -5.34375 8.4375 C-7.15730652 10.14840238 -8.0194523 11.72512933 -9 14 C-9.4375 11.875 -9.4375 11.875 -9 9 C-7.35965783 7.27785599 -5.61782802 5.86953985 -3.7265625 4.4296875 C-1.74439829 2.92760276 -1.74439829 2.92760276 0 0 Z " fill="#EDD8C2" transform="translate(340,536)"/>
<path d="M0 0 C3.08089673 2.77280706 4.68775452 5.06326356 6 9 C5.01 9 4.02 9 3 9 C0 3.375 0 3.375 0 0 Z " fill="#F9E4D1" transform="translate(453,812)"/>
<path d="M0 0 C1.32 0.66 2.64 1.32 4 2 C2.6078125 2.680625 2.6078125 2.680625 1.1875 3.375 C-2.03921389 4.9421633 -2.03921389 4.9421633 -5 7 C-5.33 6.01 -5.66 5.02 -6 4 C-4.02 2.68 -2.04 1.36 0 0 Z " fill="#FAF0E4" transform="translate(914,802)"/>
<path d="M0 0 C1.32 0 2.64 0 4 0 C4 0.66 4 1.32 4 2 C4.66 2 5.32 2 6 2 C6 2.66 6 3.32 6 4 C4.02 4 2.04 4 0 4 C0 2.68 0 1.36 0 0 Z " fill="#F2E2D2" transform="translate(338,560)"/>
<path d="M0 0 C1.4800841 0.11362262 2.95910074 0.24122908 4.4375 0.375 C5.26121094 0.44460937 6.08492188 0.51421875 6.93359375 0.5859375 C7.95646484 0.79089844 7.95646484 0.79089844 9 1 C9.33 1.66 9.66 2.32 10 3 C3.42596154 3.37211538 3.42596154 3.37211538 1.26953125 1.48828125 C0.64111328 0.75158203 0.64111328 0.75158203 0 0 Z " fill="#FCEBD9" transform="translate(453,236)"/>
<path d="M0 0 C2.64 0.33 5.28 0.66 8 1 C8 1.66 8 2.32 8 3 C5.69 3 3.38 3 1 3 C0.67 2.01 0.34 1.02 0 0 Z " fill="#EBD1B6" transform="translate(896,805)"/>
</svg>
