<?xml version="1.0" standalone="no"?>
<!DOCTYPE svg PUBLIC "-//W3C//DTD SVG 20010904//EN"
 "http://www.w3.org/TR/2001/REC-SVG-20010904/DTD/svg10.dtd">
<svg version="1.0" xmlns="http://www.w3.org/2000/svg"
 width="175.000000pt" height="113.000000pt" viewBox="0 0 175.000000 113.000000"
 preserveAspectRatio="xMidYMid meet">

<g transform="translate(0.000000,113.000000) scale(0.100000,-0.100000)"
fill="#000000" stroke="none">
<path d="M436 754 c-19 -19 -14 -49 22 -124 29 -59 65 -79 79 -44 8 21 -32
141 -54 167 -20 21 -27 21 -47 1z"/>
<path d="M1309 664 c-9 -11 -8 -23 6 -54 l18 -39 -56 -68 c-156 -190 -408
-307 -627 -290 -160 13 -311 83 -403 188 -43 50 -48 52 -63 37 -15 -15 -15
-19 5 -52 50 -80 165 -159 296 -203 70 -23 96 -27 205 -27 110 0 135 4 210 28
195 64 346 175 464 341 12 17 18 18 49 8 28 -8 40 -8 53 2 22 16 12 30 -36 55
-22 11 -49 33 -61 50 -27 36 -44 43 -60 24z"/>
</g>
</svg>
